<svg xmlns="http://www.w3.org/2000/svg" xmlns:xlink="http://www.w3.org/1999/xlink" width="1366" zoomAndPan="magnify" viewBox="0 0 1024.5 576" height="768" preserveAspectRatio="xMidYMid meet" version="1.0"><defs><filter x="0%" y="0%" width="100%" height="100%" id="1e447d9e73"><feColorMatrix values="0 0 0 0 1 0 0 0 0 1 0 0 0 0 1 0 0 0 1 0" color-interpolation-filters="sRGB"/></filter><g/><clipPath id="3f7956449c"><path d="M 0 0.140625 L 1024 0.140625 L 1024 575.859375 L 0 575.859375 Z M 0 0.140625 " clip-rule="nonzero"/></clipPath><mask id="76541bb908"><g filter="url(#1e447d9e73)"><rect x="-102.45" width="1229.4" fill="#000000" y="-57.6" height="691.2" fill-opacity="0.81"/></g></mask><clipPath id="234f9a5e85"><path d="M 0.894531 0.316406 L 736.207031 0.316406 L 736.207031 39.261719 L 0.894531 39.261719 Z M 0.894531 0.316406 " clip-rule="nonzero"/></clipPath><clipPath id="21b82f539e"><rect x="0" width="737" y="0" height="40"/></clipPath><mask id="eebcc81096"><g filter="url(#1e447d9e73)"><rect x="-102.45" width="1229.4" fill="#000000" y="-57.6" height="691.2" fill-opacity="0.81"/></g></mask><clipPath id="eb3173bcf2"><path d="M 0.832031 0.394531 L 397.976562 0.394531 L 397.976562 39.34375 L 0.832031 39.34375 Z M 0.832031 0.394531 " clip-rule="nonzero"/></clipPath><clipPath id="1533af3b8c"><rect x="0" width="399" y="0" height="40"/></clipPath><mask id="a7b95aeede"><g filter="url(#1e447d9e73)"><rect x="-102.45" width="1229.4" fill="#000000" y="-57.6" height="691.2" fill-opacity="0.81"/></g></mask><clipPath id="4d283ac802"><path d="M 0.832031 0.878906 L 397.976562 0.878906 L 397.976562 39.824219 L 0.832031 39.824219 Z M 0.832031 0.878906 " clip-rule="nonzero"/></clipPath><clipPath id="e7323ca795"><rect x="0" width="399" y="0" height="40"/></clipPath><mask id="90d49c1915"><g filter="url(#1e447d9e73)"><rect x="-102.45" width="1229.4" fill="#000000" y="-57.6" height="691.2" fill-opacity="0.81"/></g></mask><clipPath id="d3742304ab"><path d="M 0.832031 0.699219 L 397.976562 0.699219 L 397.976562 39.644531 L 0.832031 39.644531 Z M 0.832031 0.699219 " clip-rule="nonzero"/></clipPath><clipPath id="27e460c06d"><rect x="0" width="399" y="0" height="40"/></clipPath><mask id="3f36919019"><g filter="url(#1e447d9e73)"><rect x="-102.45" width="1229.4" fill="#000000" y="-57.6" height="691.2" fill-opacity="0.81"/></g></mask><clipPath id="5c04fbac03"><path d="M 0.386719 0.878906 L 397.53125 0.878906 L 397.53125 39.824219 L 0.386719 39.824219 Z M 0.386719 0.878906 " clip-rule="nonzero"/></clipPath><clipPath id="069ece2fd2"><rect x="0" width="398" y="0" height="40"/></clipPath><mask id="34483641b0"><g filter="url(#1e447d9e73)"><rect x="-102.45" width="1229.4" fill="#000000" y="-57.6" height="691.2" fill-opacity="0.81"/></g></mask><clipPath id="ac9d141d26"><path d="M 0.117188 0.46875 L 392.429688 0.46875 L 392.429688 39.414062 L 0.117188 39.414062 Z M 0.117188 0.46875 " clip-rule="nonzero"/></clipPath><clipPath id="916072d61d"><rect x="0" width="393" y="0" height="40"/></clipPath><mask id="e5a70ffbea"><g filter="url(#1e447d9e73)"><rect x="-102.45" width="1229.4" fill="#000000" y="-57.6" height="691.2" fill-opacity="0.81"/></g></mask><clipPath id="8a0c226ca4"><path d="M 0.285156 0.132812 L 397.429688 0.132812 L 397.429688 39.078125 L 0.285156 39.078125 Z M 0.285156 0.132812 " clip-rule="nonzero"/></clipPath><clipPath id="d1489889a8"><rect x="0" width="398" y="0" height="40"/></clipPath><mask id="2b8abb9fbb"><g filter="url(#1e447d9e73)"><rect x="-102.45" width="1229.4" fill="#000000" y="-57.6" height="691.2" fill-opacity="0.81"/></g></mask><clipPath id="5cfbd1e8c4"><path d="M 0.832031 0.308594 L 841.429688 0.308594 L 841.429688 144.054688 L 0.832031 144.054688 Z M 0.832031 0.308594 " clip-rule="nonzero"/></clipPath><clipPath id="b37bc35375"><rect x="0" width="842" y="0" height="145"/></clipPath></defs><g clip-path="url(#3f7956449c)"><path fill="#ffffff" d="M 0 0.140625 L 1024 0.140625 L 1024 575.859375 L 0 575.859375 Z M 0 0.140625 " fill-opacity="1" fill-rule="nonzero"/><path fill="#caba9c" d="M 0 0.140625 L 1024 0.140625 L 1024 575.859375 L 0 575.859375 Z M 0 0.140625 " fill-opacity="1" fill-rule="nonzero"/></g><g fill="#000000" fill-opacity="1"><g transform="translate(57.571905, 42.285406)"><g><path d="M 0.765625 0 L 0.765625 -17.171875 L 4.296875 -17.171875 L 5.875 -8.953125 L 5.875 -17.171875 L 9.1875 -17.171875 L 9.1875 0 L 5.828125 0 L 4.109375 -8.59375 L 4.109375 0 Z M 0.765625 0 "/></g></g></g><g fill="#000000" fill-opacity="1"><g transform="translate(67.523122, 42.285406)"><g><path d="M 0.296875 0 L 1.953125 -17.171875 L 7.78125 -17.171875 L 9.40625 0 L 6.15625 0 L 5.921875 -2.78125 L 3.84375 -2.78125 L 3.640625 0 Z M 4.09375 -5.515625 L 5.65625 -5.515625 L 4.890625 -14.25 L 4.734375 -14.25 Z M 4.09375 -5.515625 "/></g></g></g><g fill="#000000" fill-opacity="1"><g transform="translate(77.21457, 42.285406)"><g><path d="M 0.765625 0 L 0.765625 -17.171875 L 6 -17.171875 L 7.4375 -6.6875 L 8.875 -17.171875 L 14.15625 -17.171875 L 14.15625 0 L 11.015625 0 L 11.015625 -12.375 L 9.03125 0 L 5.953125 0 L 3.859375 -12.375 L 3.859375 0 Z M 0.765625 0 "/></g></g></g><g fill="#000000" fill-opacity="1"><g transform="translate(92.121406, 42.285406)"><g><path d="M 0.765625 0 L 0.765625 -17.171875 L 7.640625 -17.171875 L 7.640625 -13.84375 L 4.25 -13.84375 L 4.25 -10.515625 L 7.5 -10.515625 L 7.5 -7.28125 L 4.25 -7.28125 L 4.25 -3.34375 L 7.859375 -3.34375 L 7.859375 0 Z M 0.765625 0 "/></g></g></g><g fill="#000000" fill-opacity="1"><g transform="translate(100.354136, 42.285406)"><g/></g></g><g fill="#000000" fill-opacity="1"><g transform="translate(105.030004, 42.285406)"><g><path d="M 4.859375 0.15625 C 3.472656 0.15625 2.421875 -0.265625 1.703125 -1.109375 C 0.984375 -1.953125 0.625 -3.140625 0.625 -4.671875 L 0.625 -12.84375 C 0.625 -14.320312 0.984375 -15.4375 1.703125 -16.1875 C 2.421875 -16.945312 3.472656 -17.328125 4.859375 -17.328125 C 6.242188 -17.328125 7.296875 -16.945312 8.015625 -16.1875 C 8.734375 -15.4375 9.09375 -14.320312 9.09375 -12.84375 L 9.09375 -4.671875 C 9.09375 -3.128906 8.734375 -1.9375 8.015625 -1.09375 C 7.296875 -0.257812 6.242188 0.15625 4.859375 0.15625 Z M 4.859375 -3 C 5.160156 -3 5.363281 -3.128906 5.46875 -3.390625 C 5.582031 -3.660156 5.640625 -4.035156 5.640625 -4.515625 L 5.640625 -12.90625 C 5.640625 -13.28125 5.585938 -13.582031 5.484375 -13.8125 C 5.378906 -14.050781 5.175781 -14.171875 4.875 -14.171875 C 4.300781 -14.171875 4.015625 -13.738281 4.015625 -12.875 L 4.015625 -4.5 C 4.015625 -4 4.070312 -3.625 4.1875 -3.375 C 4.3125 -3.125 4.535156 -3 4.859375 -3 Z M 4.859375 -3 "/></g></g></g><g fill="#000000" fill-opacity="1"><g transform="translate(114.741435, 42.285406)"><g><path d="M 0.765625 0 L 0.765625 -17.171875 L 7.640625 -17.171875 L 7.640625 -13.828125 L 4.21875 -13.828125 L 4.21875 -11.09375 L 7.453125 -11.09375 L 7.453125 -7.796875 L 4.21875 -7.796875 L 4.21875 0 Z M 0.765625 0 "/></g></g></g><g fill="#000000" fill-opacity="1"><g transform="translate(122.714396, 42.285406)"><g/></g></g><g fill="#000000" fill-opacity="1"><g transform="translate(127.390264, 42.285406)"><g><path d="M 2.234375 0 L 2.234375 -13.875 L 0.203125 -13.875 L 0.203125 -17.171875 L 7.71875 -17.171875 L 7.71875 -13.875 L 5.671875 -13.875 L 5.671875 0 Z M 2.234375 0 "/></g></g></g><g fill="#000000" fill-opacity="1"><g transform="translate(135.303275, 42.285406)"><g><path d="M 0.765625 0 L 0.765625 -17.171875 L 4.171875 -17.171875 L 4.171875 -11.03125 L 5.796875 -11.03125 L 5.796875 -17.171875 L 9.21875 -17.171875 L 9.21875 0 L 5.796875 0 L 5.796875 -7.796875 L 4.171875 -7.796875 L 4.171875 0 Z M 0.765625 0 "/></g></g></g><g fill="#000000" fill-opacity="1"><g transform="translate(145.274475, 42.285406)"><g><path d="M 0.765625 0 L 0.765625 -17.171875 L 7.640625 -17.171875 L 7.640625 -13.84375 L 4.25 -13.84375 L 4.25 -10.515625 L 7.5 -10.515625 L 7.5 -7.28125 L 4.25 -7.28125 L 4.25 -3.34375 L 7.859375 -3.34375 L 7.859375 0 Z M 0.765625 0 "/></g></g></g><g fill="#000000" fill-opacity="1"><g transform="translate(153.507205, 42.285406)"><g/></g></g><g fill="#000000" fill-opacity="1"><g transform="translate(158.183073, 42.285406)"><g><path d="M 0.765625 -17.171875 L 5.296875 -17.171875 C 6.671875 -17.171875 7.648438 -16.726562 8.234375 -15.84375 C 8.816406 -14.957031 9.109375 -13.660156 9.109375 -11.953125 C 9.109375 -10.242188 8.847656 -8.957031 8.328125 -8.09375 C 7.804688 -7.226562 6.875 -6.796875 5.53125 -6.796875 L 4.140625 -6.796875 L 4.140625 0 L 0.765625 0 Z M 4.34375 -9.890625 C 4.75 -9.890625 5.046875 -9.96875 5.234375 -10.125 C 5.429688 -10.28125 5.5625 -10.5 5.625 -10.78125 C 5.6875 -11.070312 5.71875 -11.484375 5.71875 -12.015625 C 5.71875 -12.734375 5.632812 -13.25 5.46875 -13.5625 C 5.3125 -13.882812 4.992188 -14.046875 4.515625 -14.046875 L 4.140625 -14.046875 L 4.140625 -9.890625 Z M 4.34375 -9.890625 "/></g></g></g><g fill="#000000" fill-opacity="1"><g transform="translate(167.614752, 42.285406)"><g><path d="M 0.765625 -17.171875 L 6.03125 -17.171875 C 6.875 -17.171875 7.523438 -16.976562 7.984375 -16.59375 C 8.441406 -16.21875 8.75 -15.6875 8.90625 -15 C 9.070312 -14.3125 9.15625 -13.4375 9.15625 -12.375 C 9.15625 -11.394531 9.023438 -10.628906 8.765625 -10.078125 C 8.515625 -9.535156 8.078125 -9.160156 7.453125 -8.953125 C 7.972656 -8.847656 8.347656 -8.585938 8.578125 -8.171875 C 8.816406 -7.753906 8.9375 -7.195312 8.9375 -6.5 L 8.890625 0 L 5.53125 0 L 5.53125 -6.71875 C 5.53125 -7.195312 5.4375 -7.5 5.25 -7.625 C 5.0625 -7.757812 4.722656 -7.828125 4.234375 -7.828125 L 4.234375 0 L 0.765625 0 Z M 5.078125 -10.8125 C 5.554688 -10.8125 5.796875 -11.332031 5.796875 -12.375 C 5.796875 -12.820312 5.773438 -13.160156 5.734375 -13.390625 C 5.691406 -13.617188 5.617188 -13.773438 5.515625 -13.859375 C 5.410156 -13.941406 5.257812 -13.984375 5.0625 -13.984375 L 4.25 -13.984375 L 4.25 -10.8125 Z M 5.078125 -10.8125 "/></g></g></g><g fill="#000000" fill-opacity="1"><g transform="translate(177.146336, 42.285406)"><g><path d="M 4.859375 0.15625 C 3.472656 0.15625 2.421875 -0.265625 1.703125 -1.109375 C 0.984375 -1.953125 0.625 -3.140625 0.625 -4.671875 L 0.625 -12.84375 C 0.625 -14.320312 0.984375 -15.4375 1.703125 -16.1875 C 2.421875 -16.945312 3.472656 -17.328125 4.859375 -17.328125 C 6.242188 -17.328125 7.296875 -16.945312 8.015625 -16.1875 C 8.734375 -15.4375 9.09375 -14.320312 9.09375 -12.84375 L 9.09375 -4.671875 C 9.09375 -3.128906 8.734375 -1.9375 8.015625 -1.09375 C 7.296875 -0.257812 6.242188 0.15625 4.859375 0.15625 Z M 4.859375 -3 C 5.160156 -3 5.363281 -3.128906 5.46875 -3.390625 C 5.582031 -3.660156 5.640625 -4.035156 5.640625 -4.515625 L 5.640625 -12.90625 C 5.640625 -13.28125 5.585938 -13.582031 5.484375 -13.8125 C 5.378906 -14.050781 5.175781 -14.171875 4.875 -14.171875 C 4.300781 -14.171875 4.015625 -13.738281 4.015625 -12.875 L 4.015625 -4.5 C 4.015625 -4 4.070312 -3.625 4.1875 -3.375 C 4.3125 -3.125 4.535156 -3 4.859375 -3 Z M 4.859375 -3 "/></g></g></g><g fill="#000000" fill-opacity="1"><g transform="translate(186.857767, 42.285406)"><g><path d="M 4.578125 0.15625 C 3.785156 0.15625 3.070312 0.00390625 2.4375 -0.296875 C 1.800781 -0.609375 1.296875 -1.054688 0.921875 -1.640625 C 0.554688 -2.234375 0.375 -2.953125 0.375 -3.796875 L 0.375 -8.09375 L 3.75 -8.09375 L 3.75 -4 C 3.75 -3.6875 3.8125 -3.441406 3.9375 -3.265625 C 4.070312 -3.085938 4.269531 -3 4.53125 -3 C 4.789062 -3 4.984375 -3.082031 5.109375 -3.25 C 5.234375 -3.414062 5.296875 -3.648438 5.296875 -3.953125 L 5.296875 -17.171875 L 8.75 -17.171875 L 8.75 -4.296875 C 8.75 -3.398438 8.570312 -2.613281 8.21875 -1.9375 C 7.863281 -1.269531 7.367188 -0.753906 6.734375 -0.390625 C 6.109375 -0.0234375 5.390625 0.15625 4.578125 0.15625 Z M 4.578125 0.15625 "/></g></g></g><g fill="#000000" fill-opacity="1"><g transform="translate(196.169548, 42.285406)"><g><path d="M 0.765625 0 L 0.765625 -17.171875 L 7.640625 -17.171875 L 7.640625 -13.84375 L 4.25 -13.84375 L 4.25 -10.515625 L 7.5 -10.515625 L 7.5 -7.28125 L 4.25 -7.28125 L 4.25 -3.34375 L 7.859375 -3.34375 L 7.859375 0 Z M 0.765625 0 "/></g></g></g><g fill="#000000" fill-opacity="1"><g transform="translate(204.402278, 42.285406)"><g><path d="M 4.75 0.15625 C 3.5 0.15625 2.5 -0.234375 1.75 -1.015625 C 1 -1.804688 0.625 -2.882812 0.625 -4.25 L 0.625 -12.171875 C 0.625 -13.878906 0.960938 -15.164062 1.640625 -16.03125 C 2.316406 -16.894531 3.382812 -17.328125 4.84375 -17.328125 C 6.101562 -17.328125 7.117188 -16.976562 7.890625 -16.28125 C 8.660156 -15.59375 9.046875 -14.597656 9.046875 -13.296875 L 9.046875 -10.328125 L 5.640625 -10.328125 L 5.640625 -12.875 C 5.640625 -13.363281 5.578125 -13.703125 5.453125 -13.890625 C 5.335938 -14.078125 5.132812 -14.171875 4.84375 -14.171875 C 4.53125 -14.171875 4.316406 -14.0625 4.203125 -13.84375 C 4.085938 -13.632812 4.03125 -13.320312 4.03125 -12.90625 L 4.03125 -4.296875 C 4.03125 -3.847656 4.097656 -3.519531 4.234375 -3.3125 C 4.367188 -3.101562 4.570312 -3 4.84375 -3 C 5.375 -3 5.640625 -3.429688 5.640625 -4.296875 L 5.640625 -7.390625 L 9.09375 -7.390625 L 9.09375 -4.15625 C 9.09375 -1.28125 7.644531 0.15625 4.75 0.15625 Z M 4.75 0.15625 "/></g></g></g><g fill="#000000" fill-opacity="1"><g transform="translate(213.873912, 42.285406)"><g><path d="M 2.234375 0 L 2.234375 -13.875 L 0.203125 -13.875 L 0.203125 -17.171875 L 7.71875 -17.171875 L 7.71875 -13.875 L 5.671875 -13.875 L 5.671875 0 Z M 2.234375 0 "/></g></g></g><g fill="#000000" fill-opacity="1"><g transform="translate(221.788628, 42.285406)"><g/></g></g><g mask="url(#76541bb908)"><g transform="matrix(1, 0, 0, 1, 242, 15)"><g clip-path="url(#21b82f539e)"><g clip-path="url(#234f9a5e85)"><path fill="#ffffff" d="M 0.894531 0.316406 L 736.148438 0.316406 L 736.148438 39.261719 L 0.894531 39.261719 Z M 0.894531 0.316406 " fill-opacity="1" fill-rule="nonzero"/></g></g></g></g><g mask="url(#eebcc81096)"><g transform="matrix(1, 0, 0, 1, 125, 149)"><g clip-path="url(#1533af3b8c)"><g clip-path="url(#eb3173bcf2)"><path fill="#ffffff" d="M 0.832031 0.394531 L 398.046875 0.394531 L 398.046875 39.34375 L 0.832031 39.34375 Z M 0.832031 0.394531 " fill-opacity="1" fill-rule="nonzero"/></g></g></g></g><g mask="url(#a7b95aeede)"><g transform="matrix(1, 0, 0, 1, 125, 240)"><g clip-path="url(#e7323ca795)"><g clip-path="url(#4d283ac802)"><path fill="#ffffff" d="M 0.832031 0.878906 L 398.046875 0.878906 L 398.046875 39.824219 L 0.832031 39.824219 Z M 0.832031 0.878906 " fill-opacity="1" fill-rule="nonzero"/></g></g></g></g><g mask="url(#90d49c1915)"><g transform="matrix(1, 0, 0, 1, 125, 321)"><g clip-path="url(#27e460c06d)"><g clip-path="url(#d3742304ab)"><path fill="#ffffff" d="M 0.832031 0.699219 L 398.046875 0.699219 L 398.046875 39.644531 L 0.832031 39.644531 Z M 0.832031 0.699219 " fill-opacity="1" fill-rule="nonzero"/></g></g></g></g><g mask="url(#3f36919019)"><g transform="matrix(1, 0, 0, 1, 572, 240)"><g clip-path="url(#069ece2fd2)"><g clip-path="url(#5c04fbac03)"><path fill="#ffffff" d="M 0.386719 0.878906 L 397.601562 0.878906 L 397.601562 39.824219 L 0.386719 39.824219 Z M 0.386719 0.878906 " fill-opacity="1" fill-rule="nonzero"/></g></g></g></g><g mask="url(#34483641b0)"><g transform="matrix(1, 0, 0, 1, 574, 325)"><g clip-path="url(#916072d61d)"><g clip-path="url(#ac9d141d26)"><path fill="#ffffff" d="M 0.117188 0.46875 L 392.464844 0.46875 L 392.464844 39.414062 L 0.117188 39.414062 Z M 0.117188 0.46875 " fill-opacity="1" fill-rule="nonzero"/></g></g></g></g><g mask="url(#e5a70ffbea)"><g transform="matrix(1, 0, 0, 1, 569, 150)"><g clip-path="url(#d1489889a8)"><g clip-path="url(#8a0c226ca4)"><path fill="#ffffff" d="M 0.285156 0.132812 L 397.5 0.132812 L 397.5 39.078125 L 0.285156 39.078125 Z M 0.285156 0.132812 " fill-opacity="1" fill-rule="nonzero"/></g></g></g></g><g mask="url(#2b8abb9fbb)"><g transform="matrix(1, 0, 0, 1, 125, 406)"><g clip-path="url(#b37bc35375)"><g clip-path="url(#5cfbd1e8c4)"><path fill="#ffffff" d="M 0.832031 0.308594 L 841.429688 0.308594 L 841.429688 144.054688 L 0.832031 144.054688 Z M 0.832031 0.308594 " fill-opacity="1" fill-rule="nonzero"/></g></g></g></g><g fill="#000000" fill-opacity="1"><g transform="translate(80.208368, 92.084185)"><g><path d="M 0.765625 -17.171875 L 5.296875 -17.171875 C 6.671875 -17.171875 7.648438 -16.726562 8.234375 -15.84375 C 8.816406 -14.957031 9.109375 -13.660156 9.109375 -11.953125 C 9.109375 -10.242188 8.847656 -8.957031 8.328125 -8.09375 C 7.804688 -7.226562 6.875 -6.796875 5.53125 -6.796875 L 4.140625 -6.796875 L 4.140625 0 L 0.765625 0 Z M 4.34375 -9.890625 C 4.75 -9.890625 5.046875 -9.96875 5.234375 -10.125 C 5.429688 -10.28125 5.5625 -10.5 5.625 -10.78125 C 5.6875 -11.070312 5.71875 -11.484375 5.71875 -12.015625 C 5.71875 -12.734375 5.632812 -13.25 5.46875 -13.5625 C 5.3125 -13.882812 4.992188 -14.046875 4.515625 -14.046875 L 4.140625 -14.046875 L 4.140625 -9.890625 Z M 4.34375 -9.890625 "/></g></g></g><g fill="#000000" fill-opacity="1"><g transform="translate(89.640047, 92.084185)"><g><path d="M 0.765625 -17.171875 L 6.03125 -17.171875 C 6.875 -17.171875 7.523438 -16.976562 7.984375 -16.59375 C 8.441406 -16.21875 8.75 -15.6875 8.90625 -15 C 9.070312 -14.3125 9.15625 -13.4375 9.15625 -12.375 C 9.15625 -11.394531 9.023438 -10.628906 8.765625 -10.078125 C 8.515625 -9.535156 8.078125 -9.160156 7.453125 -8.953125 C 7.972656 -8.847656 8.347656 -8.585938 8.578125 -8.171875 C 8.816406 -7.753906 8.9375 -7.195312 8.9375 -6.5 L 8.890625 0 L 5.53125 0 L 5.53125 -6.71875 C 5.53125 -7.195312 5.4375 -7.5 5.25 -7.625 C 5.0625 -7.757812 4.722656 -7.828125 4.234375 -7.828125 L 4.234375 0 L 0.765625 0 Z M 5.078125 -10.8125 C 5.554688 -10.8125 5.796875 -11.332031 5.796875 -12.375 C 5.796875 -12.820312 5.773438 -13.160156 5.734375 -13.390625 C 5.691406 -13.617188 5.617188 -13.773438 5.515625 -13.859375 C 5.410156 -13.941406 5.257812 -13.984375 5.0625 -13.984375 L 4.25 -13.984375 L 4.25 -10.8125 Z M 5.078125 -10.8125 "/></g></g></g><g fill="#000000" fill-opacity="1"><g transform="translate(99.171631, 92.084185)"><g><path d="M 4.859375 0.15625 C 3.472656 0.15625 2.421875 -0.265625 1.703125 -1.109375 C 0.984375 -1.953125 0.625 -3.140625 0.625 -4.671875 L 0.625 -12.84375 C 0.625 -14.320312 0.984375 -15.4375 1.703125 -16.1875 C 2.421875 -16.945312 3.472656 -17.328125 4.859375 -17.328125 C 6.242188 -17.328125 7.296875 -16.945312 8.015625 -16.1875 C 8.734375 -15.4375 9.09375 -14.320312 9.09375 -12.84375 L 9.09375 -4.671875 C 9.09375 -3.128906 8.734375 -1.9375 8.015625 -1.09375 C 7.296875 -0.257812 6.242188 0.15625 4.859375 0.15625 Z M 4.859375 -3 C 5.160156 -3 5.363281 -3.128906 5.46875 -3.390625 C 5.582031 -3.660156 5.640625 -4.035156 5.640625 -4.515625 L 5.640625 -12.90625 C 5.640625 -13.28125 5.585938 -13.582031 5.484375 -13.8125 C 5.378906 -14.050781 5.175781 -14.171875 4.875 -14.171875 C 4.300781 -14.171875 4.015625 -13.738281 4.015625 -12.875 L 4.015625 -4.5 C 4.015625 -4 4.070312 -3.625 4.1875 -3.375 C 4.3125 -3.125 4.535156 -3 4.859375 -3 Z M 4.859375 -3 "/></g></g></g><g fill="#000000" fill-opacity="1"><g transform="translate(108.883062, 92.084185)"><g><path d="M 4.578125 0.15625 C 3.785156 0.15625 3.070312 0.00390625 2.4375 -0.296875 C 1.800781 -0.609375 1.296875 -1.054688 0.921875 -1.640625 C 0.554688 -2.234375 0.375 -2.953125 0.375 -3.796875 L 0.375 -8.09375 L 3.75 -8.09375 L 3.75 -4 C 3.75 -3.6875 3.8125 -3.441406 3.9375 -3.265625 C 4.070312 -3.085938 4.269531 -3 4.53125 -3 C 4.789062 -3 4.984375 -3.082031 5.109375 -3.25 C 5.234375 -3.414062 5.296875 -3.648438 5.296875 -3.953125 L 5.296875 -17.171875 L 8.75 -17.171875 L 8.75 -4.296875 C 8.75 -3.398438 8.570312 -2.613281 8.21875 -1.9375 C 7.863281 -1.269531 7.367188 -0.753906 6.734375 -0.390625 C 6.109375 -0.0234375 5.390625 0.15625 4.578125 0.15625 Z M 4.578125 0.15625 "/></g></g></g><g fill="#000000" fill-opacity="1"><g transform="translate(118.194843, 92.084185)"><g><path d="M 0.765625 0 L 0.765625 -17.171875 L 7.640625 -17.171875 L 7.640625 -13.84375 L 4.25 -13.84375 L 4.25 -10.515625 L 7.5 -10.515625 L 7.5 -7.28125 L 4.25 -7.28125 L 4.25 -3.34375 L 7.859375 -3.34375 L 7.859375 0 Z M 0.765625 0 "/></g></g></g><g fill="#000000" fill-opacity="1"><g transform="translate(126.427573, 92.084185)"><g><path d="M 4.75 0.15625 C 3.5 0.15625 2.5 -0.234375 1.75 -1.015625 C 1 -1.804688 0.625 -2.882812 0.625 -4.25 L 0.625 -12.171875 C 0.625 -13.878906 0.960938 -15.164062 1.640625 -16.03125 C 2.316406 -16.894531 3.382812 -17.328125 4.84375 -17.328125 C 6.101562 -17.328125 7.117188 -16.976562 7.890625 -16.28125 C 8.660156 -15.59375 9.046875 -14.597656 9.046875 -13.296875 L 9.046875 -10.328125 L 5.640625 -10.328125 L 5.640625 -12.875 C 5.640625 -13.363281 5.578125 -13.703125 5.453125 -13.890625 C 5.335938 -14.078125 5.132812 -14.171875 4.84375 -14.171875 C 4.53125 -14.171875 4.316406 -14.0625 4.203125 -13.84375 C 4.085938 -13.632812 4.03125 -13.320312 4.03125 -12.90625 L 4.03125 -4.296875 C 4.03125 -3.847656 4.097656 -3.519531 4.234375 -3.3125 C 4.367188 -3.101562 4.570312 -3 4.84375 -3 C 5.375 -3 5.640625 -3.429688 5.640625 -4.296875 L 5.640625 -7.390625 L 9.09375 -7.390625 L 9.09375 -4.15625 C 9.09375 -1.28125 7.644531 0.15625 4.75 0.15625 Z M 4.75 0.15625 "/></g></g></g><g fill="#000000" fill-opacity="1"><g transform="translate(135.899207, 92.084185)"><g><path d="M 2.234375 0 L 2.234375 -13.875 L 0.203125 -13.875 L 0.203125 -17.171875 L 7.71875 -17.171875 L 7.71875 -13.875 L 5.671875 -13.875 L 5.671875 0 Z M 2.234375 0 "/></g></g></g><g fill="#000000" fill-opacity="1"><g transform="translate(143.812219, 92.084185)"><g/></g></g><g fill="#000000" fill-opacity="1"><g transform="translate(148.488087, 92.084185)"><g><path d="M 0.765625 -17.171875 L 5.5 -17.171875 C 6.71875 -17.171875 7.632812 -16.828125 8.25 -16.140625 C 8.863281 -15.460938 9.175781 -14.457031 9.1875 -13.125 L 9.234375 -5.09375 C 9.242188 -3.40625 8.945312 -2.132812 8.34375 -1.28125 C 7.75 -0.425781 6.757812 0 5.375 0 L 0.765625 0 Z M 4.8125 -3.03125 C 5.4375 -3.03125 5.75 -3.335938 5.75 -3.953125 L 5.75 -12.8125 C 5.75 -13.195312 5.71875 -13.484375 5.65625 -13.671875 C 5.601562 -13.867188 5.492188 -14 5.328125 -14.0625 C 5.171875 -14.132812 4.925781 -14.171875 4.59375 -14.171875 L 4.21875 -14.171875 L 4.21875 -3.03125 Z M 4.8125 -3.03125 "/></g></g></g><g fill="#000000" fill-opacity="1"><g transform="translate(158.339388, 92.084185)"><g><path d="M 0.765625 0 L 0.765625 -17.171875 L 7.640625 -17.171875 L 7.640625 -13.84375 L 4.25 -13.84375 L 4.25 -10.515625 L 7.5 -10.515625 L 7.5 -7.28125 L 4.25 -7.28125 L 4.25 -3.34375 L 7.859375 -3.34375 L 7.859375 0 Z M 0.765625 0 "/></g></g></g><g fill="#000000" fill-opacity="1"><g transform="translate(166.572118, 92.084185)"><g><path d="M 2.234375 0 L 2.234375 -13.875 L 0.203125 -13.875 L 0.203125 -17.171875 L 7.71875 -17.171875 L 7.71875 -13.875 L 5.671875 -13.875 L 5.671875 0 Z M 2.234375 0 "/></g></g></g><g fill="#000000" fill-opacity="1"><g transform="translate(174.485129, 92.084185)"><g><path d="M 0.296875 0 L 1.953125 -17.171875 L 7.78125 -17.171875 L 9.40625 0 L 6.15625 0 L 5.921875 -2.78125 L 3.84375 -2.78125 L 3.640625 0 Z M 4.09375 -5.515625 L 5.65625 -5.515625 L 4.890625 -14.25 L 4.734375 -14.25 Z M 4.09375 -5.515625 "/></g></g></g><g fill="#000000" fill-opacity="1"><g transform="translate(184.176577, 92.084185)"><g><path d="M 0.59375 0 L 0.59375 -17.171875 L 3.921875 -17.171875 L 3.921875 0 Z M 0.59375 0 "/></g></g></g><g fill="#000000" fill-opacity="1"><g transform="translate(188.712575, 92.084185)"><g><path d="M 0.765625 0 L 0.765625 -17.171875 L 4.203125 -17.171875 L 4.203125 -2.921875 L 7.734375 -2.921875 L 7.734375 0 Z M 0.765625 0 "/></g></g></g><g fill="#000000" fill-opacity="1"><g transform="translate(196.64557, 92.084185)"><g><path d="M 4.84375 0.15625 C 3.28125 0.15625 2.148438 -0.226562 1.453125 -1 C 0.765625 -1.769531 0.421875 -3.015625 0.421875 -4.734375 L 0.421875 -6.421875 L 3.796875 -6.421875 L 3.796875 -4.28125 C 3.796875 -3.425781 4.066406 -3 4.609375 -3 C 4.921875 -3 5.132812 -3.085938 5.25 -3.265625 C 5.375 -3.441406 5.4375 -3.742188 5.4375 -4.171875 C 5.4375 -4.734375 5.367188 -5.195312 5.234375 -5.5625 C 5.097656 -5.925781 4.925781 -6.234375 4.71875 -6.484375 C 4.519531 -6.734375 4.15625 -7.117188 3.625 -7.640625 L 2.140625 -9.109375 C 0.992188 -10.234375 0.421875 -11.472656 0.421875 -12.828125 C 0.421875 -14.296875 0.753906 -15.410156 1.421875 -16.171875 C 2.097656 -16.941406 3.082031 -17.328125 4.375 -17.328125 C 5.914062 -17.328125 7.023438 -16.914062 7.703125 -16.09375 C 8.390625 -15.28125 8.734375 -14 8.734375 -12.25 L 5.234375 -12.25 L 5.21875 -13.421875 C 5.21875 -13.648438 5.15625 -13.832031 5.03125 -13.96875 C 4.90625 -14.101562 4.726562 -14.171875 4.5 -14.171875 C 4.226562 -14.171875 4.023438 -14.097656 3.890625 -13.953125 C 3.765625 -13.804688 3.703125 -13.601562 3.703125 -13.34375 C 3.703125 -12.789062 4.019531 -12.210938 4.65625 -11.609375 L 6.65625 -9.6875 C 7.125 -9.238281 7.507812 -8.8125 7.8125 -8.40625 C 8.125 -8 8.367188 -7.519531 8.546875 -6.96875 C 8.734375 -6.414062 8.828125 -5.757812 8.828125 -5 C 8.828125 -3.300781 8.515625 -2.015625 7.890625 -1.140625 C 7.273438 -0.273438 6.257812 0.15625 4.84375 0.15625 Z M 4.84375 0.15625 "/></g></g></g><g fill="#000000" fill-opacity="1"><g transform="translate(127.2072, 137.585102)"><g><path d="M 0.609375 -13.734375 L 4.234375 -13.734375 C 5.328125 -13.734375 6.109375 -13.378906 6.578125 -12.671875 C 7.046875 -11.960938 7.28125 -10.925781 7.28125 -9.5625 C 7.28125 -8.195312 7.070312 -7.164062 6.65625 -6.46875 C 6.25 -5.78125 5.503906 -5.4375 4.421875 -5.4375 L 3.3125 -5.4375 L 3.3125 0 L 0.609375 0 Z M 3.46875 -7.90625 C 3.800781 -7.90625 4.039062 -7.96875 4.1875 -8.09375 C 4.34375 -8.21875 4.445312 -8.394531 4.5 -8.625 C 4.550781 -8.851562 4.578125 -9.179688 4.578125 -9.609375 C 4.578125 -10.179688 4.507812 -10.59375 4.375 -10.84375 C 4.25 -11.101562 3.992188 -11.234375 3.609375 -11.234375 L 3.3125 -11.234375 L 3.3125 -7.90625 Z M 3.46875 -7.90625 "/></g></g></g><g fill="#000000" fill-opacity="1"><g transform="translate(134.913622, 137.585102)"><g><path d="M 0.609375 -13.734375 L 4.828125 -13.734375 C 5.492188 -13.734375 6.007812 -13.578125 6.375 -13.265625 C 6.75 -12.960938 7 -12.535156 7.125 -11.984375 C 7.257812 -11.441406 7.328125 -10.742188 7.328125 -9.890625 C 7.328125 -9.117188 7.222656 -8.515625 7.015625 -8.078125 C 6.816406 -7.640625 6.46875 -7.332031 5.96875 -7.15625 C 6.375 -7.070312 6.671875 -6.863281 6.859375 -6.53125 C 7.046875 -6.207031 7.140625 -5.757812 7.140625 -5.1875 L 7.109375 0 L 4.421875 0 L 4.421875 -5.375 C 4.421875 -5.757812 4.347656 -6.003906 4.203125 -6.109375 C 4.054688 -6.210938 3.785156 -6.265625 3.390625 -6.265625 L 3.390625 0 L 0.609375 0 Z M 4.0625 -8.640625 C 4.445312 -8.640625 4.640625 -9.054688 4.640625 -9.890625 C 4.640625 -10.253906 4.625 -10.523438 4.59375 -10.703125 C 4.5625 -10.890625 4.5 -11.015625 4.40625 -11.078125 C 4.320312 -11.148438 4.203125 -11.1875 4.046875 -11.1875 L 3.40625 -11.1875 L 3.40625 -8.640625 Z M 4.0625 -8.640625 "/></g></g></g><g fill="#000000" fill-opacity="1"><g transform="translate(142.699988, 137.585102)"><g><path d="M 3.890625 0.125 C 2.773438 0.125 1.929688 -0.210938 1.359375 -0.890625 C 0.785156 -1.566406 0.5 -2.515625 0.5 -3.734375 L 0.5 -10.28125 C 0.5 -11.457031 0.785156 -12.347656 1.359375 -12.953125 C 1.929688 -13.554688 2.773438 -13.859375 3.890625 -13.859375 C 4.992188 -13.859375 5.832031 -13.554688 6.40625 -12.953125 C 6.976562 -12.347656 7.265625 -11.457031 7.265625 -10.28125 L 7.265625 -3.734375 C 7.265625 -2.503906 6.976562 -1.550781 6.40625 -0.875 C 5.832031 -0.207031 4.992188 0.125 3.890625 0.125 Z M 3.890625 -2.390625 C 4.128906 -2.390625 4.289062 -2.492188 4.375 -2.703125 C 4.457031 -2.921875 4.5 -3.222656 4.5 -3.609375 L 4.5 -10.328125 C 4.5 -10.617188 4.457031 -10.859375 4.375 -11.046875 C 4.300781 -11.234375 4.144531 -11.328125 3.90625 -11.328125 C 3.445312 -11.328125 3.21875 -10.984375 3.21875 -10.296875 L 3.21875 -3.59375 C 3.21875 -3.195312 3.265625 -2.894531 3.359375 -2.6875 C 3.453125 -2.488281 3.628906 -2.390625 3.890625 -2.390625 Z M 3.890625 -2.390625 "/></g></g></g><g fill="#000000" fill-opacity="1"><g transform="translate(150.630251, 137.585102)"><g><path d="M 3.65625 0.125 C 3.03125 0.125 2.460938 0.00390625 1.953125 -0.234375 C 1.441406 -0.484375 1.035156 -0.84375 0.734375 -1.3125 C 0.441406 -1.789062 0.296875 -2.363281 0.296875 -3.03125 L 0.296875 -6.46875 L 3 -6.46875 L 3 -3.203125 C 3 -2.953125 3.050781 -2.753906 3.15625 -2.609375 C 3.257812 -2.460938 3.414062 -2.390625 3.625 -2.390625 C 3.832031 -2.390625 3.984375 -2.457031 4.078125 -2.59375 C 4.179688 -2.726562 4.234375 -2.921875 4.234375 -3.171875 L 4.234375 -13.734375 L 7 -13.734375 L 7 -3.4375 C 7 -2.71875 6.859375 -2.085938 6.578125 -1.546875 C 6.296875 -1.015625 5.898438 -0.601562 5.390625 -0.3125 C 4.890625 -0.0195312 4.3125 0.125 3.65625 0.125 Z M 3.65625 0.125 "/></g></g></g><g fill="#000000" fill-opacity="1"><g transform="translate(158.24075, 137.585102)"><g><path d="M 0.609375 0 L 0.609375 -13.734375 L 6.109375 -13.734375 L 6.109375 -11.078125 L 3.40625 -11.078125 L 3.40625 -8.40625 L 6 -8.40625 L 6 -5.8125 L 3.40625 -5.8125 L 3.40625 -2.671875 L 6.28125 -2.671875 L 6.28125 0 Z M 0.609375 0 "/></g></g></g><g fill="#000000" fill-opacity="1"><g transform="translate(164.987868, 137.585102)"><g><path d="M 3.796875 0.125 C 2.796875 0.125 1.992188 -0.1875 1.390625 -0.8125 C 0.796875 -1.445312 0.5 -2.3125 0.5 -3.40625 L 0.5 -9.734375 C 0.5 -11.097656 0.769531 -12.125 1.3125 -12.8125 C 1.851562 -13.507812 2.707031 -13.859375 3.875 -13.859375 C 4.882812 -13.859375 5.695312 -13.582031 6.3125 -13.03125 C 6.925781 -12.476562 7.234375 -11.675781 7.234375 -10.625 L 7.234375 -8.265625 L 4.5 -8.265625 L 4.5 -10.296875 C 4.5 -10.691406 4.453125 -10.960938 4.359375 -11.109375 C 4.265625 -11.253906 4.101562 -11.328125 3.875 -11.328125 C 3.625 -11.328125 3.453125 -11.242188 3.359375 -11.078125 C 3.273438 -10.910156 3.234375 -10.660156 3.234375 -10.328125 L 3.234375 -3.4375 C 3.234375 -3.070312 3.285156 -2.804688 3.390625 -2.640625 C 3.492188 -2.472656 3.65625 -2.390625 3.875 -2.390625 C 4.289062 -2.390625 4.5 -2.738281 4.5 -3.4375 L 4.5 -5.921875 L 7.265625 -5.921875 L 7.265625 -3.328125 C 7.265625 -1.023438 6.109375 0.125 3.796875 0.125 Z M 3.796875 0.125 "/></g></g></g><g fill="#000000" fill-opacity="1"><g transform="translate(172.726271, 137.585102)"><g><path d="M 1.796875 0 L 1.796875 -11.09375 L 0.15625 -11.09375 L 0.15625 -13.734375 L 6.171875 -13.734375 L 6.171875 -11.09375 L 4.546875 -11.09375 L 4.546875 0 Z M 1.796875 0 "/></g></g></g><g fill="#000000" fill-opacity="1"><g transform="translate(179.217579, 137.585102)"><g/></g></g><g fill="#000000" fill-opacity="1"><g transform="translate(183.118774, 137.585102)"><g><path d="M 0.609375 0 L 0.609375 -13.734375 L 3.359375 -13.734375 L 3.359375 -2.328125 L 6.1875 -2.328125 L 6.1875 0 Z M 0.609375 0 "/></g></g></g><g fill="#000000" fill-opacity="1"><g transform="translate(189.626073, 137.585102)"><g><path d="M 3.890625 0.125 C 2.773438 0.125 1.929688 -0.210938 1.359375 -0.890625 C 0.785156 -1.566406 0.5 -2.515625 0.5 -3.734375 L 0.5 -10.28125 C 0.5 -11.457031 0.785156 -12.347656 1.359375 -12.953125 C 1.929688 -13.554688 2.773438 -13.859375 3.890625 -13.859375 C 4.992188 -13.859375 5.832031 -13.554688 6.40625 -12.953125 C 6.976562 -12.347656 7.265625 -11.457031 7.265625 -10.28125 L 7.265625 -3.734375 C 7.265625 -2.503906 6.976562 -1.550781 6.40625 -0.875 C 5.832031 -0.207031 4.992188 0.125 3.890625 0.125 Z M 3.890625 -2.390625 C 4.128906 -2.390625 4.289062 -2.492188 4.375 -2.703125 C 4.457031 -2.921875 4.5 -3.222656 4.5 -3.609375 L 4.5 -10.328125 C 4.5 -10.617188 4.457031 -10.859375 4.375 -11.046875 C 4.300781 -11.234375 4.144531 -11.328125 3.90625 -11.328125 C 3.445312 -11.328125 3.21875 -10.984375 3.21875 -10.296875 L 3.21875 -3.59375 C 3.21875 -3.195312 3.265625 -2.894531 3.359375 -2.6875 C 3.453125 -2.488281 3.628906 -2.390625 3.890625 -2.390625 Z M 3.890625 -2.390625 "/></g></g></g><g fill="#000000" fill-opacity="1"><g transform="translate(197.556334, 137.585102)"><g><path d="M 3.796875 0.125 C 2.796875 0.125 1.992188 -0.1875 1.390625 -0.8125 C 0.796875 -1.445312 0.5 -2.3125 0.5 -3.40625 L 0.5 -9.734375 C 0.5 -11.097656 0.769531 -12.125 1.3125 -12.8125 C 1.851562 -13.507812 2.707031 -13.859375 3.875 -13.859375 C 4.882812 -13.859375 5.695312 -13.582031 6.3125 -13.03125 C 6.925781 -12.476562 7.234375 -11.675781 7.234375 -10.625 L 7.234375 -8.265625 L 4.5 -8.265625 L 4.5 -10.296875 C 4.5 -10.691406 4.453125 -10.960938 4.359375 -11.109375 C 4.265625 -11.253906 4.101562 -11.328125 3.875 -11.328125 C 3.625 -11.328125 3.453125 -11.242188 3.359375 -11.078125 C 3.273438 -10.910156 3.234375 -10.660156 3.234375 -10.328125 L 3.234375 -3.4375 C 3.234375 -3.070312 3.285156 -2.804688 3.390625 -2.640625 C 3.492188 -2.472656 3.65625 -2.390625 3.875 -2.390625 C 4.289062 -2.390625 4.5 -2.738281 4.5 -3.4375 L 4.5 -5.921875 L 7.265625 -5.921875 L 7.265625 -3.328125 C 7.265625 -1.023438 6.109375 0.125 3.796875 0.125 Z M 3.796875 0.125 "/></g></g></g><g fill="#000000" fill-opacity="1"><g transform="translate(205.294737, 137.585102)"><g><path d="M 0.234375 0 L 1.5625 -13.734375 L 6.21875 -13.734375 L 7.53125 0 L 4.921875 0 L 4.734375 -2.21875 L 3.0625 -2.21875 L 2.90625 0 Z M 3.28125 -4.40625 L 4.53125 -4.40625 L 3.921875 -11.390625 L 3.78125 -11.390625 Z M 3.28125 -4.40625 "/></g></g></g><g fill="#000000" fill-opacity="1"><g transform="translate(213.209007, 137.585102)"><g><path d="M 1.796875 0 L 1.796875 -11.09375 L 0.15625 -11.09375 L 0.15625 -13.734375 L 6.171875 -13.734375 L 6.171875 -11.09375 L 4.546875 -11.09375 L 4.546875 0 Z M 1.796875 0 "/></g></g></g><g fill="#000000" fill-opacity="1"><g transform="translate(219.700315, 137.585102)"><g><path d="M 0.484375 0 L 0.484375 -13.734375 L 3.140625 -13.734375 L 3.140625 0 Z M 0.484375 0 "/></g></g></g><g fill="#000000" fill-opacity="1"><g transform="translate(223.489602, 137.585102)"><g><path d="M 3.890625 0.125 C 2.773438 0.125 1.929688 -0.210938 1.359375 -0.890625 C 0.785156 -1.566406 0.5 -2.515625 0.5 -3.734375 L 0.5 -10.28125 C 0.5 -11.457031 0.785156 -12.347656 1.359375 -12.953125 C 1.929688 -13.554688 2.773438 -13.859375 3.890625 -13.859375 C 4.992188 -13.859375 5.832031 -13.554688 6.40625 -12.953125 C 6.976562 -12.347656 7.265625 -11.457031 7.265625 -10.28125 L 7.265625 -3.734375 C 7.265625 -2.503906 6.976562 -1.550781 6.40625 -0.875 C 5.832031 -0.207031 4.992188 0.125 3.890625 0.125 Z M 3.890625 -2.390625 C 4.128906 -2.390625 4.289062 -2.492188 4.375 -2.703125 C 4.457031 -2.921875 4.5 -3.222656 4.5 -3.609375 L 4.5 -10.328125 C 4.5 -10.617188 4.457031 -10.859375 4.375 -11.046875 C 4.300781 -11.234375 4.144531 -11.328125 3.90625 -11.328125 C 3.445312 -11.328125 3.21875 -10.984375 3.21875 -10.296875 L 3.21875 -3.59375 C 3.21875 -3.195312 3.265625 -2.894531 3.359375 -2.6875 C 3.453125 -2.488281 3.628906 -2.390625 3.890625 -2.390625 Z M 3.890625 -2.390625 "/></g></g></g><g fill="#000000" fill-opacity="1"><g transform="translate(231.419863, 137.585102)"><g><path d="M 0.609375 0 L 0.609375 -13.734375 L 3.4375 -13.734375 L 4.703125 -7.15625 L 4.703125 -13.734375 L 7.359375 -13.734375 L 7.359375 0 L 4.671875 0 L 3.296875 -6.875 L 3.296875 0 Z M 0.609375 0 "/></g></g></g><g fill="#000000" fill-opacity="1"><g transform="translate(572.385467, 137.585102)"><g><path d="M 0.609375 -13.734375 L 4.390625 -13.734375 C 5.367188 -13.734375 6.101562 -13.457031 6.59375 -12.90625 C 7.09375 -12.363281 7.347656 -11.5625 7.359375 -10.5 L 7.390625 -4.078125 C 7.398438 -2.722656 7.164062 -1.703125 6.6875 -1.015625 C 6.207031 -0.335938 5.410156 0 4.296875 0 L 0.609375 0 Z M 3.859375 -2.421875 C 4.359375 -2.421875 4.609375 -2.671875 4.609375 -3.171875 L 4.609375 -10.25 C 4.609375 -10.550781 4.582031 -10.78125 4.53125 -10.9375 C 4.476562 -11.09375 4.390625 -11.195312 4.265625 -11.25 C 4.140625 -11.300781 3.941406 -11.328125 3.671875 -11.328125 L 3.375 -11.328125 L 3.375 -2.421875 Z M 3.859375 -2.421875 "/></g></g></g><g fill="#000000" fill-opacity="1"><g transform="translate(580.427644, 137.585102)"><g><path d="M 0.234375 0 L 1.5625 -13.734375 L 6.21875 -13.734375 L 7.53125 0 L 4.921875 0 L 4.734375 -2.21875 L 3.0625 -2.21875 L 2.90625 0 Z M 3.28125 -4.40625 L 4.53125 -4.40625 L 3.921875 -11.390625 L 3.78125 -11.390625 Z M 3.28125 -4.40625 "/></g></g></g><g fill="#000000" fill-opacity="1"><g transform="translate(588.341916, 137.585102)"><g><path d="M 1.796875 0 L 1.796875 -11.09375 L 0.15625 -11.09375 L 0.15625 -13.734375 L 6.171875 -13.734375 L 6.171875 -11.09375 L 4.546875 -11.09375 L 4.546875 0 Z M 1.796875 0 "/></g></g></g><g fill="#000000" fill-opacity="1"><g transform="translate(594.833225, 137.585102)"><g><path d="M 0.609375 0 L 0.609375 -13.734375 L 6.109375 -13.734375 L 6.109375 -11.078125 L 3.40625 -11.078125 L 3.40625 -8.40625 L 6 -8.40625 L 6 -5.8125 L 3.40625 -5.8125 L 3.40625 -2.671875 L 6.28125 -2.671875 L 6.28125 0 Z M 0.609375 0 "/></g></g></g><g fill="#000000" fill-opacity="1"><g transform="translate(127.2072, 222.193786)"><g><path d="M 0.609375 -13.734375 L 4.234375 -13.734375 C 5.328125 -13.734375 6.109375 -13.378906 6.578125 -12.671875 C 7.046875 -11.960938 7.28125 -10.925781 7.28125 -9.5625 C 7.28125 -8.195312 7.070312 -7.164062 6.65625 -6.46875 C 6.25 -5.78125 5.503906 -5.4375 4.421875 -5.4375 L 3.3125 -5.4375 L 3.3125 0 L 0.609375 0 Z M 3.46875 -7.90625 C 3.800781 -7.90625 4.039062 -7.96875 4.1875 -8.09375 C 4.34375 -8.21875 4.445312 -8.394531 4.5 -8.625 C 4.550781 -8.851562 4.578125 -9.179688 4.578125 -9.609375 C 4.578125 -10.179688 4.507812 -10.59375 4.375 -10.84375 C 4.25 -11.101562 3.992188 -11.234375 3.609375 -11.234375 L 3.3125 -11.234375 L 3.3125 -7.90625 Z M 3.46875 -7.90625 "/></g></g></g><g fill="#000000" fill-opacity="1"><g transform="translate(134.913622, 222.193786)"><g><path d="M 0.234375 0 L 1.5625 -13.734375 L 6.21875 -13.734375 L 7.53125 0 L 4.921875 0 L 4.734375 -2.21875 L 3.0625 -2.21875 L 2.90625 0 Z M 3.28125 -4.40625 L 4.53125 -4.40625 L 3.921875 -11.390625 L 3.78125 -11.390625 Z M 3.28125 -4.40625 "/></g></g></g><g fill="#000000" fill-opacity="1"><g transform="translate(142.827894, 222.193786)"><g><path d="M 0.609375 -13.734375 L 4.828125 -13.734375 C 5.492188 -13.734375 6.007812 -13.578125 6.375 -13.265625 C 6.75 -12.960938 7 -12.535156 7.125 -11.984375 C 7.257812 -11.441406 7.328125 -10.742188 7.328125 -9.890625 C 7.328125 -9.117188 7.222656 -8.515625 7.015625 -8.078125 C 6.816406 -7.640625 6.46875 -7.332031 5.96875 -7.15625 C 6.375 -7.070312 6.671875 -6.863281 6.859375 -6.53125 C 7.046875 -6.207031 7.140625 -5.757812 7.140625 -5.1875 L 7.109375 0 L 4.421875 0 L 4.421875 -5.375 C 4.421875 -5.757812 4.347656 -6.003906 4.203125 -6.109375 C 4.054688 -6.210938 3.785156 -6.265625 3.390625 -6.265625 L 3.390625 0 L 0.609375 0 Z M 4.0625 -8.640625 C 4.445312 -8.640625 4.640625 -9.054688 4.640625 -9.890625 C 4.640625 -10.253906 4.625 -10.523438 4.59375 -10.703125 C 4.5625 -10.890625 4.5 -11.015625 4.40625 -11.078125 C 4.320312 -11.148438 4.203125 -11.1875 4.046875 -11.1875 L 3.40625 -11.1875 L 3.40625 -8.640625 Z M 4.0625 -8.640625 "/></g></g></g><g fill="#000000" fill-opacity="1"><g transform="translate(150.61426, 222.193786)"><g><path d="M 1.796875 0 L 1.796875 -11.09375 L 0.15625 -11.09375 L 0.15625 -13.734375 L 6.171875 -13.734375 L 6.171875 -11.09375 L 4.546875 -11.09375 L 4.546875 0 Z M 1.796875 0 "/></g></g></g><g fill="#000000" fill-opacity="1"><g transform="translate(157.105569, 222.193786)"><g><path d="M 0.484375 0 L 0.484375 -13.734375 L 3.140625 -13.734375 L 3.140625 0 Z M 0.484375 0 "/></g></g></g><g fill="#000000" fill-opacity="1"><g transform="translate(160.89485, 222.193786)"><g><path d="M 0.609375 0 L 0.609375 -13.734375 L 6.109375 -13.734375 L 6.109375 -11.078125 L 3.40625 -11.078125 L 3.40625 -8.40625 L 6 -8.40625 L 6 -5.8125 L 3.40625 -5.8125 L 3.40625 -2.671875 L 6.28125 -2.671875 L 6.28125 0 Z M 0.609375 0 "/></g></g></g><g fill="#000000" fill-opacity="1"><g transform="translate(167.641969, 222.193786)"><g><path d="M 3.875 0.125 C 2.625 0.125 1.71875 -0.179688 1.15625 -0.796875 C 0.601562 -1.410156 0.328125 -2.40625 0.328125 -3.78125 L 0.328125 -5.125 L 3.03125 -5.125 L 3.03125 -3.421875 C 3.03125 -2.734375 3.25 -2.390625 3.6875 -2.390625 C 3.9375 -2.390625 4.109375 -2.460938 4.203125 -2.609375 C 4.296875 -2.753906 4.34375 -3 4.34375 -3.34375 C 4.34375 -3.789062 4.289062 -4.160156 4.1875 -4.453125 C 4.082031 -4.742188 3.945312 -4.988281 3.78125 -5.1875 C 3.613281 -5.382812 3.316406 -5.691406 2.890625 -6.109375 L 1.703125 -7.28125 C 0.785156 -8.175781 0.328125 -9.171875 0.328125 -10.265625 C 0.328125 -11.429688 0.597656 -12.320312 1.140625 -12.9375 C 1.679688 -13.550781 2.46875 -13.859375 3.5 -13.859375 C 4.738281 -13.859375 5.628906 -13.53125 6.171875 -12.875 C 6.710938 -12.21875 6.984375 -11.191406 6.984375 -9.796875 L 4.1875 -9.796875 L 4.171875 -10.734375 C 4.171875 -10.921875 4.117188 -11.066406 4.015625 -11.171875 C 3.921875 -11.273438 3.78125 -11.328125 3.59375 -11.328125 C 3.382812 -11.328125 3.222656 -11.269531 3.109375 -11.15625 C 3.003906 -11.039062 2.953125 -10.878906 2.953125 -10.671875 C 2.953125 -10.222656 3.207031 -9.757812 3.71875 -9.28125 L 5.328125 -7.75 C 5.691406 -7.382812 6 -7.039062 6.25 -6.71875 C 6.5 -6.394531 6.695312 -6.007812 6.84375 -5.5625 C 6.988281 -5.125 7.0625 -4.601562 7.0625 -4 C 7.0625 -2.644531 6.8125 -1.617188 6.3125 -0.921875 C 5.820312 -0.222656 5.007812 0.125 3.875 0.125 Z M 3.875 0.125 "/></g></g></g><g fill="#000000" fill-opacity="1"><g transform="translate(175.172522, 222.193786)"><g/></g></g><g fill="#000000" fill-opacity="1"><g transform="translate(179.073717, 222.193786)"><g><path d="M 0.484375 0 L 0.484375 -13.734375 L 3.140625 -13.734375 L 3.140625 0 Z M 0.484375 0 "/></g></g></g><g fill="#000000" fill-opacity="1"><g transform="translate(182.862998, 222.193786)"><g><path d="M 0.609375 0 L 0.609375 -13.734375 L 3.4375 -13.734375 L 4.703125 -7.15625 L 4.703125 -13.734375 L 7.359375 -13.734375 L 7.359375 0 L 4.671875 0 L 3.296875 -6.875 L 3.296875 0 Z M 0.609375 0 "/></g></g></g><g fill="#000000" fill-opacity="1"><g transform="translate(190.985117, 222.193786)"><g><path d="M 1.875 0 L 0.171875 -13.75 L 2.796875 -13.75 L 3.796875 -4.390625 L 4.703125 -13.75 L 7.328125 -13.75 L 5.625 0 Z M 1.875 0 "/></g></g></g><g fill="#000000" fill-opacity="1"><g transform="translate(198.643576, 222.193786)"><g><path d="M 3.890625 0.125 C 2.773438 0.125 1.929688 -0.210938 1.359375 -0.890625 C 0.785156 -1.566406 0.5 -2.515625 0.5 -3.734375 L 0.5 -10.28125 C 0.5 -11.457031 0.785156 -12.347656 1.359375 -12.953125 C 1.929688 -13.554688 2.773438 -13.859375 3.890625 -13.859375 C 4.992188 -13.859375 5.832031 -13.554688 6.40625 -12.953125 C 6.976562 -12.347656 7.265625 -11.457031 7.265625 -10.28125 L 7.265625 -3.734375 C 7.265625 -2.503906 6.976562 -1.550781 6.40625 -0.875 C 5.832031 -0.207031 4.992188 0.125 3.890625 0.125 Z M 3.890625 -2.390625 C 4.128906 -2.390625 4.289062 -2.492188 4.375 -2.703125 C 4.457031 -2.921875 4.5 -3.222656 4.5 -3.609375 L 4.5 -10.328125 C 4.5 -10.617188 4.457031 -10.859375 4.375 -11.046875 C 4.300781 -11.234375 4.144531 -11.328125 3.90625 -11.328125 C 3.445312 -11.328125 3.21875 -10.984375 3.21875 -10.296875 L 3.21875 -3.59375 C 3.21875 -3.195312 3.265625 -2.894531 3.359375 -2.6875 C 3.453125 -2.488281 3.628906 -2.390625 3.890625 -2.390625 Z M 3.890625 -2.390625 "/></g></g></g><g fill="#000000" fill-opacity="1"><g transform="translate(206.573837, 222.193786)"><g><path d="M 0.609375 0 L 0.609375 -13.734375 L 3.359375 -13.734375 L 3.359375 -2.328125 L 6.1875 -2.328125 L 6.1875 0 Z M 0.609375 0 "/></g></g></g><g fill="#000000" fill-opacity="1"><g transform="translate(213.081136, 222.193786)"><g><path d="M 1.875 0 L 0.171875 -13.75 L 2.796875 -13.75 L 3.796875 -4.390625 L 4.703125 -13.75 L 7.328125 -13.75 L 5.625 0 Z M 1.875 0 "/></g></g></g><g fill="#000000" fill-opacity="1"><g transform="translate(220.739595, 222.193786)"><g><path d="M 0.609375 0 L 0.609375 -13.734375 L 6.109375 -13.734375 L 6.109375 -11.078125 L 3.40625 -11.078125 L 3.40625 -8.40625 L 6 -8.40625 L 6 -5.8125 L 3.40625 -5.8125 L 3.40625 -2.671875 L 6.28125 -2.671875 L 6.28125 0 Z M 0.609375 0 "/></g></g></g><g fill="#000000" fill-opacity="1"><g transform="translate(227.48672, 222.193786)"><g><path d="M 0.609375 -13.734375 L 4.390625 -13.734375 C 5.367188 -13.734375 6.101562 -13.457031 6.59375 -12.90625 C 7.09375 -12.363281 7.347656 -11.5625 7.359375 -10.5 L 7.390625 -4.078125 C 7.398438 -2.722656 7.164062 -1.703125 6.6875 -1.015625 C 6.207031 -0.335938 5.410156 0 4.296875 0 L 0.609375 0 Z M 3.859375 -2.421875 C 4.359375 -2.421875 4.609375 -2.671875 4.609375 -3.171875 L 4.609375 -10.25 C 4.609375 -10.550781 4.582031 -10.78125 4.53125 -10.9375 C 4.476562 -11.09375 4.390625 -11.195312 4.265625 -11.25 C 4.140625 -11.300781 3.941406 -11.328125 3.671875 -11.328125 L 3.375 -11.328125 L 3.375 -2.421875 Z M 3.859375 -2.421875 "/></g></g></g><g fill="#000000" fill-opacity="1"><g transform="translate(125.832383, 309.754155)"><g><path d="M 0.609375 0 L 0.609375 -13.734375 L 3.34375 -13.734375 L 3.34375 -8.828125 L 4.640625 -8.828125 L 4.640625 -13.734375 L 7.375 -13.734375 L 7.375 0 L 4.640625 0 L 4.640625 -6.234375 L 3.34375 -6.234375 L 3.34375 0 Z M 0.609375 0 "/></g></g></g><g fill="#000000" fill-opacity="1"><g transform="translate(133.970495, 309.754155)"><g><path d="M 3.890625 0.125 C 2.773438 0.125 1.929688 -0.210938 1.359375 -0.890625 C 0.785156 -1.566406 0.5 -2.515625 0.5 -3.734375 L 0.5 -10.28125 C 0.5 -11.457031 0.785156 -12.347656 1.359375 -12.953125 C 1.929688 -13.554688 2.773438 -13.859375 3.890625 -13.859375 C 4.992188 -13.859375 5.832031 -13.554688 6.40625 -12.953125 C 6.976562 -12.347656 7.265625 -11.457031 7.265625 -10.28125 L 7.265625 -3.734375 C 7.265625 -2.503906 6.976562 -1.550781 6.40625 -0.875 C 5.832031 -0.207031 4.992188 0.125 3.890625 0.125 Z M 3.890625 -2.390625 C 4.128906 -2.390625 4.289062 -2.492188 4.375 -2.703125 C 4.457031 -2.921875 4.5 -3.222656 4.5 -3.609375 L 4.5 -10.328125 C 4.5 -10.617188 4.457031 -10.859375 4.375 -11.046875 C 4.300781 -11.234375 4.144531 -11.328125 3.90625 -11.328125 C 3.445312 -11.328125 3.21875 -10.984375 3.21875 -10.296875 L 3.21875 -3.59375 C 3.21875 -3.195312 3.265625 -2.894531 3.359375 -2.6875 C 3.453125 -2.488281 3.628906 -2.390625 3.890625 -2.390625 Z M 3.890625 -2.390625 "/></g></g></g><g fill="#000000" fill-opacity="1"><g transform="translate(141.900757, 309.754155)"><g><path d="M 1.671875 0 L 0.203125 -13.734375 L 2.890625 -13.734375 L 3.65625 -5.0625 L 4.421875 -13.734375 L 6.984375 -13.734375 L 7.71875 -5.0625 L 8.453125 -13.734375 L 11.171875 -13.734375 L 9.671875 0 L 6.375 0 L 5.6875 -6.625 L 5.03125 0 Z M 1.671875 0 "/></g></g></g><g fill="#000000" fill-opacity="1"><g transform="translate(153.444389, 309.754155)"><g/></g></g><g fill="#000000" fill-opacity="1"><g transform="translate(157.345584, 309.754155)"><g><path d="M 0.609375 0 L 0.609375 -13.734375 L 4.796875 -13.734375 L 5.953125 -5.359375 L 7.09375 -13.734375 L 11.3125 -13.734375 L 11.3125 0 L 8.8125 0 L 8.8125 -9.890625 L 7.21875 0 L 4.765625 0 L 3.078125 -9.890625 L 3.078125 0 Z M 0.609375 0 "/></g></g></g><g fill="#000000" fill-opacity="1"><g transform="translate(169.432816, 309.754155)"><g><path d="M 3.78125 0.125 C 2.65625 0.125 1.816406 -0.191406 1.265625 -0.828125 C 0.722656 -1.472656 0.453125 -2.421875 0.453125 -3.671875 L 0.453125 -13.734375 L 3.109375 -13.734375 L 3.109375 -3.78125 C 3.109375 -3.351562 3.148438 -3.015625 3.234375 -2.765625 C 3.328125 -2.515625 3.507812 -2.390625 3.78125 -2.390625 C 4.0625 -2.390625 4.242188 -2.507812 4.328125 -2.75 C 4.410156 -2.988281 4.453125 -3.332031 4.453125 -3.78125 L 4.453125 -13.734375 L 7.125 -13.734375 L 7.125 -3.671875 C 7.125 -2.421875 6.847656 -1.472656 6.296875 -0.828125 C 5.753906 -0.191406 4.914062 0.125 3.78125 0.125 Z M 3.78125 0.125 "/></g></g></g><g fill="#000000" fill-opacity="1"><g transform="translate(177.171219, 309.754155)"><g><path d="M 3.796875 0.125 C 2.796875 0.125 1.992188 -0.1875 1.390625 -0.8125 C 0.796875 -1.445312 0.5 -2.3125 0.5 -3.40625 L 0.5 -9.734375 C 0.5 -11.097656 0.769531 -12.125 1.3125 -12.8125 C 1.851562 -13.507812 2.707031 -13.859375 3.875 -13.859375 C 4.882812 -13.859375 5.695312 -13.582031 6.3125 -13.03125 C 6.925781 -12.476562 7.234375 -11.675781 7.234375 -10.625 L 7.234375 -8.265625 L 4.5 -8.265625 L 4.5 -10.296875 C 4.5 -10.691406 4.453125 -10.960938 4.359375 -11.109375 C 4.265625 -11.253906 4.101562 -11.328125 3.875 -11.328125 C 3.625 -11.328125 3.453125 -11.242188 3.359375 -11.078125 C 3.273438 -10.910156 3.234375 -10.660156 3.234375 -10.328125 L 3.234375 -3.4375 C 3.234375 -3.070312 3.285156 -2.804688 3.390625 -2.640625 C 3.492188 -2.472656 3.65625 -2.390625 3.875 -2.390625 C 4.289062 -2.390625 4.5 -2.738281 4.5 -3.4375 L 4.5 -5.921875 L 7.265625 -5.921875 L 7.265625 -3.328125 C 7.265625 -1.023438 6.109375 0.125 3.796875 0.125 Z M 3.796875 0.125 "/></g></g></g><g fill="#000000" fill-opacity="1"><g transform="translate(184.909622, 309.754155)"><g><path d="M 0.609375 0 L 0.609375 -13.734375 L 3.34375 -13.734375 L 3.34375 -8.828125 L 4.640625 -8.828125 L 4.640625 -13.734375 L 7.375 -13.734375 L 7.375 0 L 4.640625 0 L 4.640625 -6.234375 L 3.34375 -6.234375 L 3.34375 0 Z M 0.609375 0 "/></g></g></g><g fill="#000000" fill-opacity="1"><g transform="translate(193.047732, 309.754155)"><g/></g></g><g fill="#000000" fill-opacity="1"><g transform="translate(196.948927, 309.754155)"><g><path d="M 0.609375 0 L 0.609375 -13.734375 L 4.796875 -13.734375 L 5.953125 -5.359375 L 7.09375 -13.734375 L 11.3125 -13.734375 L 11.3125 0 L 8.8125 0 L 8.8125 -9.890625 L 7.21875 0 L 4.765625 0 L 3.078125 -9.890625 L 3.078125 0 Z M 0.609375 0 "/></g></g></g><g fill="#000000" fill-opacity="1"><g transform="translate(209.036159, 309.754155)"><g><path d="M 3.890625 0.125 C 2.773438 0.125 1.929688 -0.210938 1.359375 -0.890625 C 0.785156 -1.566406 0.5 -2.515625 0.5 -3.734375 L 0.5 -10.28125 C 0.5 -11.457031 0.785156 -12.347656 1.359375 -12.953125 C 1.929688 -13.554688 2.773438 -13.859375 3.890625 -13.859375 C 4.992188 -13.859375 5.832031 -13.554688 6.40625 -12.953125 C 6.976562 -12.347656 7.265625 -11.457031 7.265625 -10.28125 L 7.265625 -3.734375 C 7.265625 -2.503906 6.976562 -1.550781 6.40625 -0.875 C 5.832031 -0.207031 4.992188 0.125 3.890625 0.125 Z M 3.890625 -2.390625 C 4.128906 -2.390625 4.289062 -2.492188 4.375 -2.703125 C 4.457031 -2.921875 4.5 -3.222656 4.5 -3.609375 L 4.5 -10.328125 C 4.5 -10.617188 4.457031 -10.859375 4.375 -11.046875 C 4.300781 -11.234375 4.144531 -11.328125 3.90625 -11.328125 C 3.445312 -11.328125 3.21875 -10.984375 3.21875 -10.296875 L 3.21875 -3.59375 C 3.21875 -3.195312 3.265625 -2.894531 3.359375 -2.6875 C 3.453125 -2.488281 3.628906 -2.390625 3.890625 -2.390625 Z M 3.890625 -2.390625 "/></g></g></g><g fill="#000000" fill-opacity="1"><g transform="translate(216.96642, 309.754155)"><g><path d="M 0.609375 0 L 0.609375 -13.734375 L 3.4375 -13.734375 L 4.703125 -7.15625 L 4.703125 -13.734375 L 7.359375 -13.734375 L 7.359375 0 L 4.671875 0 L 3.296875 -6.875 L 3.296875 0 Z M 0.609375 0 "/></g></g></g><g fill="#000000" fill-opacity="1"><g transform="translate(225.088545, 309.754155)"><g><path d="M 0.609375 0 L 0.609375 -13.734375 L 6.109375 -13.734375 L 6.109375 -11.078125 L 3.40625 -11.078125 L 3.40625 -8.40625 L 6 -8.40625 L 6 -5.8125 L 3.40625 -5.8125 L 3.40625 -2.671875 L 6.28125 -2.671875 L 6.28125 0 Z M 0.609375 0 "/></g></g></g><g fill="#000000" fill-opacity="1"><g transform="translate(231.835664, 309.754155)"><g><path d="M 2.265625 0 L 2.265625 -4.53125 L 0.078125 -13.734375 L 2.796875 -13.734375 L 3.5625 -9.078125 L 4.328125 -13.734375 L 7.046875 -13.734375 L 4.859375 -4.53125 L 4.859375 0 Z M 2.265625 0 "/></g></g></g><g fill="#000000" fill-opacity="1"><g transform="translate(574.118286, 212.873318)"><g><path d="M 1.796875 0 L 1.796875 -11.09375 L 0.15625 -11.09375 L 0.15625 -13.734375 L 6.171875 -13.734375 L 6.171875 -11.09375 L 4.546875 -11.09375 L 4.546875 0 Z M 1.796875 0 "/></g></g></g><g fill="#000000" fill-opacity="1"><g transform="translate(580.609595, 212.873318)"><g><path d="M 0.609375 0 L 0.609375 -13.734375 L 3.34375 -13.734375 L 3.34375 -8.828125 L 4.640625 -8.828125 L 4.640625 -13.734375 L 7.375 -13.734375 L 7.375 0 L 4.640625 0 L 4.640625 -6.234375 L 3.34375 -6.234375 L 3.34375 0 Z M 0.609375 0 "/></g></g></g><g fill="#000000" fill-opacity="1"><g transform="translate(588.747707, 212.873318)"><g><path d="M 0.609375 0 L 0.609375 -13.734375 L 6.109375 -13.734375 L 6.109375 -11.078125 L 3.40625 -11.078125 L 3.40625 -8.40625 L 6 -8.40625 L 6 -5.8125 L 3.40625 -5.8125 L 3.40625 -2.671875 L 6.28125 -2.671875 L 6.28125 0 Z M 0.609375 0 "/></g></g></g><g fill="#000000" fill-opacity="1"><g transform="translate(595.494827, 212.873318)"><g/></g></g><g fill="#000000" fill-opacity="1"><g transform="translate(599.396023, 212.873318)"><g><path d="M 0.234375 0 L 1.5625 -13.734375 L 6.21875 -13.734375 L 7.53125 0 L 4.921875 0 L 4.734375 -2.21875 L 3.0625 -2.21875 L 2.90625 0 Z M 3.28125 -4.40625 L 4.53125 -4.40625 L 3.921875 -11.390625 L 3.78125 -11.390625 Z M 3.28125 -4.40625 "/></g></g></g><g fill="#000000" fill-opacity="1"><g transform="translate(607.310293, 212.873318)"><g><path d="M 0.609375 -13.734375 L 4.828125 -13.734375 C 5.492188 -13.734375 6.007812 -13.578125 6.375 -13.265625 C 6.75 -12.960938 7 -12.535156 7.125 -11.984375 C 7.257812 -11.441406 7.328125 -10.742188 7.328125 -9.890625 C 7.328125 -9.117188 7.222656 -8.515625 7.015625 -8.078125 C 6.816406 -7.640625 6.46875 -7.332031 5.96875 -7.15625 C 6.375 -7.070312 6.671875 -6.863281 6.859375 -6.53125 C 7.046875 -6.207031 7.140625 -5.757812 7.140625 -5.1875 L 7.109375 0 L 4.421875 0 L 4.421875 -5.375 C 4.421875 -5.757812 4.347656 -6.003906 4.203125 -6.109375 C 4.054688 -6.210938 3.785156 -6.265625 3.390625 -6.265625 L 3.390625 0 L 0.609375 0 Z M 4.0625 -8.640625 C 4.445312 -8.640625 4.640625 -9.054688 4.640625 -9.890625 C 4.640625 -10.253906 4.625 -10.523438 4.59375 -10.703125 C 4.5625 -10.890625 4.5 -11.015625 4.40625 -11.078125 C 4.320312 -11.148438 4.203125 -11.1875 4.046875 -11.1875 L 3.40625 -11.1875 L 3.40625 -8.640625 Z M 4.0625 -8.640625 "/></g></g></g><g fill="#000000" fill-opacity="1"><g transform="translate(615.096658, 212.873318)"><g><path d="M 0.609375 0 L 0.609375 -13.734375 L 6.109375 -13.734375 L 6.109375 -11.078125 L 3.40625 -11.078125 L 3.40625 -8.40625 L 6 -8.40625 L 6 -5.8125 L 3.40625 -5.8125 L 3.40625 -2.671875 L 6.28125 -2.671875 L 6.28125 0 Z M 0.609375 0 "/></g></g></g><g fill="#000000" fill-opacity="1"><g transform="translate(621.843777, 212.873318)"><g><path d="M 0.234375 0 L 1.5625 -13.734375 L 6.21875 -13.734375 L 7.53125 0 L 4.921875 0 L 4.734375 -2.21875 L 3.0625 -2.21875 L 2.90625 0 Z M 3.28125 -4.40625 L 4.53125 -4.40625 L 3.921875 -11.390625 L 3.78125 -11.390625 Z M 3.28125 -4.40625 "/></g></g></g><g fill="#000000" fill-opacity="1"><g transform="translate(629.766906, 212.873318)"><g/></g></g><g fill="#000000" fill-opacity="1"><g transform="translate(125.832383, 394.362781)"><g><path d="M 0.234375 0 L 1.5625 -13.734375 L 6.21875 -13.734375 L 7.53125 0 L 4.921875 0 L 4.734375 -2.21875 L 3.0625 -2.21875 L 2.90625 0 Z M 3.28125 -4.40625 L 4.53125 -4.40625 L 3.921875 -11.390625 L 3.78125 -11.390625 Z M 3.28125 -4.40625 "/></g></g></g><g fill="#000000" fill-opacity="1"><g transform="translate(133.746655, 394.362781)"><g><path d="M 0.609375 0 L 0.609375 -13.734375 L 3.359375 -13.734375 L 3.359375 -2.328125 L 6.1875 -2.328125 L 6.1875 0 Z M 0.609375 0 "/></g></g></g><g fill="#000000" fill-opacity="1"><g transform="translate(140.253955, 394.362781)"><g><path d="M 0.609375 0 L 0.609375 -13.734375 L 3.359375 -13.734375 L 3.359375 -2.328125 L 6.1875 -2.328125 L 6.1875 0 Z M 0.609375 0 "/></g></g></g><g fill="#000000" fill-opacity="1"><g transform="translate(146.761256, 394.362781)"><g><path d="M 0.609375 0 L 0.609375 -13.734375 L 6.109375 -13.734375 L 6.109375 -11.078125 L 3.40625 -11.078125 L 3.40625 -8.40625 L 6 -8.40625 L 6 -5.8125 L 3.40625 -5.8125 L 3.40625 -2.671875 L 6.28125 -2.671875 L 6.28125 0 Z M 0.609375 0 "/></g></g></g><g fill="#000000" fill-opacity="1"><g transform="translate(153.508376, 394.362781)"><g><path d="M 3.4375 0.125 C 2.445312 0.125 1.707031 -0.222656 1.21875 -0.921875 C 0.738281 -1.617188 0.5 -2.675781 0.5 -4.09375 L 0.5 -10 C 0.5 -11.269531 0.78125 -12.226562 1.34375 -12.875 C 1.90625 -13.53125 2.75 -13.859375 3.875 -13.859375 C 4.78125 -13.859375 5.484375 -13.675781 5.984375 -13.3125 C 6.484375 -12.945312 6.828125 -12.414062 7.015625 -11.71875 C 7.210938 -11.03125 7.3125 -10.144531 7.3125 -9.0625 L 4.625 -9.0625 L 4.625 -10.296875 C 4.625 -10.628906 4.578125 -10.882812 4.484375 -11.0625 C 4.390625 -11.238281 4.226562 -11.328125 4 -11.328125 C 3.476562 -11.328125 3.21875 -10.988281 3.21875 -10.3125 L 3.21875 -3.65625 C 3.21875 -3.238281 3.269531 -2.921875 3.375 -2.703125 C 3.476562 -2.492188 3.664062 -2.390625 3.9375 -2.390625 C 4.195312 -2.390625 4.378906 -2.492188 4.484375 -2.703125 C 4.597656 -2.921875 4.65625 -3.238281 4.65625 -3.65625 L 4.65625 -5.625 L 3.921875 -5.625 L 3.921875 -7.984375 L 7.265625 -7.984375 L 7.265625 0 L 6.171875 0 L 5.703125 -1.15625 C 5.210938 -0.300781 4.457031 0.125 3.4375 0.125 Z M 3.4375 0.125 "/></g></g></g><g fill="#000000" fill-opacity="1"><g transform="translate(161.422646, 394.362781)"><g><path d="M 0.234375 0 L 1.5625 -13.734375 L 6.21875 -13.734375 L 7.53125 0 L 4.921875 0 L 4.734375 -2.21875 L 3.0625 -2.21875 L 2.90625 0 Z M 3.28125 -4.40625 L 4.53125 -4.40625 L 3.921875 -11.390625 L 3.78125 -11.390625 Z M 3.28125 -4.40625 "/></g></g></g><g fill="#000000" fill-opacity="1"><g transform="translate(169.336916, 394.362781)"><g><path d="M 1.796875 0 L 1.796875 -11.09375 L 0.15625 -11.09375 L 0.15625 -13.734375 L 6.171875 -13.734375 L 6.171875 -11.09375 L 4.546875 -11.09375 L 4.546875 0 Z M 1.796875 0 "/></g></g></g><g fill="#000000" fill-opacity="1"><g transform="translate(175.828224, 394.362781)"><g><path d="M 0.484375 0 L 0.484375 -13.734375 L 3.140625 -13.734375 L 3.140625 0 Z M 0.484375 0 "/></g></g></g><g fill="#000000" fill-opacity="1"><g transform="translate(179.617504, 394.362781)"><g><path d="M 3.890625 0.125 C 2.773438 0.125 1.929688 -0.210938 1.359375 -0.890625 C 0.785156 -1.566406 0.5 -2.515625 0.5 -3.734375 L 0.5 -10.28125 C 0.5 -11.457031 0.785156 -12.347656 1.359375 -12.953125 C 1.929688 -13.554688 2.773438 -13.859375 3.890625 -13.859375 C 4.992188 -13.859375 5.832031 -13.554688 6.40625 -12.953125 C 6.976562 -12.347656 7.265625 -11.457031 7.265625 -10.28125 L 7.265625 -3.734375 C 7.265625 -2.503906 6.976562 -1.550781 6.40625 -0.875 C 5.832031 -0.207031 4.992188 0.125 3.890625 0.125 Z M 3.890625 -2.390625 C 4.128906 -2.390625 4.289062 -2.492188 4.375 -2.703125 C 4.457031 -2.921875 4.5 -3.222656 4.5 -3.609375 L 4.5 -10.328125 C 4.5 -10.617188 4.457031 -10.859375 4.375 -11.046875 C 4.300781 -11.234375 4.144531 -11.328125 3.90625 -11.328125 C 3.445312 -11.328125 3.21875 -10.984375 3.21875 -10.296875 L 3.21875 -3.59375 C 3.21875 -3.195312 3.265625 -2.894531 3.359375 -2.6875 C 3.453125 -2.488281 3.628906 -2.390625 3.890625 -2.390625 Z M 3.890625 -2.390625 "/></g></g></g><g fill="#000000" fill-opacity="1"><g transform="translate(187.547765, 394.362781)"><g><path d="M 0.609375 0 L 0.609375 -13.734375 L 3.4375 -13.734375 L 4.703125 -7.15625 L 4.703125 -13.734375 L 7.359375 -13.734375 L 7.359375 0 L 4.671875 0 L 3.296875 -6.875 L 3.296875 0 Z M 0.609375 0 "/></g></g></g><g fill="#000000" fill-opacity="1"><g transform="translate(195.669884, 394.362781)"><g/></g></g><g fill="#000000" fill-opacity="1"><g transform="translate(199.571079, 394.362781)"><g><path d="M 3.890625 0.125 C 2.773438 0.125 1.929688 -0.210938 1.359375 -0.890625 C 0.785156 -1.566406 0.5 -2.515625 0.5 -3.734375 L 0.5 -10.28125 C 0.5 -11.457031 0.785156 -12.347656 1.359375 -12.953125 C 1.929688 -13.554688 2.773438 -13.859375 3.890625 -13.859375 C 4.992188 -13.859375 5.832031 -13.554688 6.40625 -12.953125 C 6.976562 -12.347656 7.265625 -11.457031 7.265625 -10.28125 L 7.265625 -3.734375 C 7.265625 -2.503906 6.976562 -1.550781 6.40625 -0.875 C 5.832031 -0.207031 4.992188 0.125 3.890625 0.125 Z M 3.890625 -2.390625 C 4.128906 -2.390625 4.289062 -2.492188 4.375 -2.703125 C 4.457031 -2.921875 4.5 -3.222656 4.5 -3.609375 L 4.5 -10.328125 C 4.5 -10.617188 4.457031 -10.859375 4.375 -11.046875 C 4.300781 -11.234375 4.144531 -11.328125 3.90625 -11.328125 C 3.445312 -11.328125 3.21875 -10.984375 3.21875 -10.296875 L 3.21875 -3.59375 C 3.21875 -3.195312 3.265625 -2.894531 3.359375 -2.6875 C 3.453125 -2.488281 3.628906 -2.390625 3.890625 -2.390625 Z M 3.890625 -2.390625 "/></g></g></g><g fill="#000000" fill-opacity="1"><g transform="translate(207.50134, 394.362781)"><g><path d="M 0.609375 0 L 0.609375 -13.734375 L 6.109375 -13.734375 L 6.109375 -11.0625 L 3.375 -11.0625 L 3.375 -8.875 L 5.96875 -8.875 L 5.96875 -6.234375 L 3.375 -6.234375 L 3.375 0 Z M 0.609375 0 "/></g></g></g><g fill="#000000" fill-opacity="1"><g transform="translate(214.04061, 394.362781)"><g/></g></g><g fill="#000000" fill-opacity="1"><g transform="translate(217.941805, 394.362781)"><g><path d="M 3.796875 0.125 C 2.796875 0.125 1.992188 -0.1875 1.390625 -0.8125 C 0.796875 -1.445312 0.5 -2.3125 0.5 -3.40625 L 0.5 -9.734375 C 0.5 -11.097656 0.769531 -12.125 1.3125 -12.8125 C 1.851562 -13.507812 2.707031 -13.859375 3.875 -13.859375 C 4.882812 -13.859375 5.695312 -13.582031 6.3125 -13.03125 C 6.925781 -12.476562 7.234375 -11.675781 7.234375 -10.625 L 7.234375 -8.265625 L 4.5 -8.265625 L 4.5 -10.296875 C 4.5 -10.691406 4.453125 -10.960938 4.359375 -11.109375 C 4.265625 -11.253906 4.101562 -11.328125 3.875 -11.328125 C 3.625 -11.328125 3.453125 -11.242188 3.359375 -11.078125 C 3.273438 -10.910156 3.234375 -10.660156 3.234375 -10.328125 L 3.234375 -3.4375 C 3.234375 -3.070312 3.285156 -2.804688 3.390625 -2.640625 C 3.492188 -2.472656 3.65625 -2.390625 3.875 -2.390625 C 4.289062 -2.390625 4.5 -2.738281 4.5 -3.4375 L 4.5 -5.921875 L 7.265625 -5.921875 L 7.265625 -3.328125 C 7.265625 -1.023438 6.109375 0.125 3.796875 0.125 Z M 3.796875 0.125 "/></g></g></g><g fill="#000000" fill-opacity="1"><g transform="translate(225.680214, 394.362781)"><g><path d="M 3.890625 0.125 C 2.773438 0.125 1.929688 -0.210938 1.359375 -0.890625 C 0.785156 -1.566406 0.5 -2.515625 0.5 -3.734375 L 0.5 -10.28125 C 0.5 -11.457031 0.785156 -12.347656 1.359375 -12.953125 C 1.929688 -13.554688 2.773438 -13.859375 3.890625 -13.859375 C 4.992188 -13.859375 5.832031 -13.554688 6.40625 -12.953125 C 6.976562 -12.347656 7.265625 -11.457031 7.265625 -10.28125 L 7.265625 -3.734375 C 7.265625 -2.503906 6.976562 -1.550781 6.40625 -0.875 C 5.832031 -0.207031 4.992188 0.125 3.890625 0.125 Z M 3.890625 -2.390625 C 4.128906 -2.390625 4.289062 -2.492188 4.375 -2.703125 C 4.457031 -2.921875 4.5 -3.222656 4.5 -3.609375 L 4.5 -10.328125 C 4.5 -10.617188 4.457031 -10.859375 4.375 -11.046875 C 4.300781 -11.234375 4.144531 -11.328125 3.90625 -11.328125 C 3.445312 -11.328125 3.21875 -10.984375 3.21875 -10.296875 L 3.21875 -3.59375 C 3.21875 -3.195312 3.265625 -2.894531 3.359375 -2.6875 C 3.453125 -2.488281 3.628906 -2.390625 3.890625 -2.390625 Z M 3.890625 -2.390625 "/></g></g></g><g fill="#000000" fill-opacity="1"><g transform="translate(233.610475, 394.362781)"><g><path d="M 0.609375 -13.734375 L 4.828125 -13.734375 C 5.492188 -13.734375 6.007812 -13.578125 6.375 -13.265625 C 6.75 -12.960938 7 -12.535156 7.125 -11.984375 C 7.257812 -11.441406 7.328125 -10.742188 7.328125 -9.890625 C 7.328125 -9.117188 7.222656 -8.515625 7.015625 -8.078125 C 6.816406 -7.640625 6.46875 -7.332031 5.96875 -7.15625 C 6.375 -7.070312 6.671875 -6.863281 6.859375 -6.53125 C 7.046875 -6.207031 7.140625 -5.757812 7.140625 -5.1875 L 7.109375 0 L 4.421875 0 L 4.421875 -5.375 C 4.421875 -5.757812 4.347656 -6.003906 4.203125 -6.109375 C 4.054688 -6.210938 3.785156 -6.265625 3.390625 -6.265625 L 3.390625 0 L 0.609375 0 Z M 4.0625 -8.640625 C 4.445312 -8.640625 4.640625 -9.054688 4.640625 -9.890625 C 4.640625 -10.253906 4.625 -10.523438 4.59375 -10.703125 C 4.5625 -10.890625 4.5 -11.015625 4.40625 -11.078125 C 4.320312 -11.148438 4.203125 -11.1875 4.046875 -11.1875 L 3.40625 -11.1875 L 3.40625 -8.640625 Z M 4.0625 -8.640625 "/></g></g></g><g fill="#000000" fill-opacity="1"><g transform="translate(241.396839, 394.362781)"><g><path d="M 0.609375 -13.734375 L 4.828125 -13.734375 C 5.492188 -13.734375 6.007812 -13.578125 6.375 -13.265625 C 6.75 -12.960938 7 -12.535156 7.125 -11.984375 C 7.257812 -11.441406 7.328125 -10.742188 7.328125 -9.890625 C 7.328125 -9.117188 7.222656 -8.515625 7.015625 -8.078125 C 6.816406 -7.640625 6.46875 -7.332031 5.96875 -7.15625 C 6.375 -7.070312 6.671875 -6.863281 6.859375 -6.53125 C 7.046875 -6.207031 7.140625 -5.757812 7.140625 -5.1875 L 7.109375 0 L 4.421875 0 L 4.421875 -5.375 C 4.421875 -5.757812 4.347656 -6.003906 4.203125 -6.109375 C 4.054688 -6.210938 3.785156 -6.265625 3.390625 -6.265625 L 3.390625 0 L 0.609375 0 Z M 4.0625 -8.640625 C 4.445312 -8.640625 4.640625 -9.054688 4.640625 -9.890625 C 4.640625 -10.253906 4.625 -10.523438 4.59375 -10.703125 C 4.5625 -10.890625 4.5 -11.015625 4.40625 -11.078125 C 4.320312 -11.148438 4.203125 -11.1875 4.046875 -11.1875 L 3.40625 -11.1875 L 3.40625 -8.640625 Z M 4.0625 -8.640625 "/></g></g></g><g fill="#000000" fill-opacity="1"><g transform="translate(249.183204, 394.362781)"><g><path d="M 3.78125 0.125 C 2.65625 0.125 1.816406 -0.191406 1.265625 -0.828125 C 0.722656 -1.472656 0.453125 -2.421875 0.453125 -3.671875 L 0.453125 -13.734375 L 3.109375 -13.734375 L 3.109375 -3.78125 C 3.109375 -3.351562 3.148438 -3.015625 3.234375 -2.765625 C 3.328125 -2.515625 3.507812 -2.390625 3.78125 -2.390625 C 4.0625 -2.390625 4.242188 -2.507812 4.328125 -2.75 C 4.410156 -2.988281 4.453125 -3.332031 4.453125 -3.78125 L 4.453125 -13.734375 L 7.125 -13.734375 L 7.125 -3.671875 C 7.125 -2.421875 6.847656 -1.472656 6.296875 -0.828125 C 5.753906 -0.191406 4.914062 0.125 3.78125 0.125 Z M 3.78125 0.125 "/></g></g></g><g fill="#000000" fill-opacity="1"><g transform="translate(256.921607, 394.362781)"><g><path d="M 0.609375 -13.734375 L 4.234375 -13.734375 C 5.328125 -13.734375 6.109375 -13.378906 6.578125 -12.671875 C 7.046875 -11.960938 7.28125 -10.925781 7.28125 -9.5625 C 7.28125 -8.195312 7.070312 -7.164062 6.65625 -6.46875 C 6.25 -5.78125 5.503906 -5.4375 4.421875 -5.4375 L 3.3125 -5.4375 L 3.3125 0 L 0.609375 0 Z M 3.46875 -7.90625 C 3.800781 -7.90625 4.039062 -7.96875 4.1875 -8.09375 C 4.34375 -8.21875 4.445312 -8.394531 4.5 -8.625 C 4.550781 -8.851562 4.578125 -9.179688 4.578125 -9.609375 C 4.578125 -10.179688 4.507812 -10.59375 4.375 -10.84375 C 4.25 -11.101562 3.992188 -11.234375 3.609375 -11.234375 L 3.3125 -11.234375 L 3.3125 -7.90625 Z M 3.46875 -7.90625 "/></g></g></g><g fill="#000000" fill-opacity="1"><g transform="translate(264.628027, 394.362781)"><g><path d="M 1.796875 0 L 1.796875 -11.09375 L 0.15625 -11.09375 L 0.15625 -13.734375 L 6.171875 -13.734375 L 6.171875 -11.09375 L 4.546875 -11.09375 L 4.546875 0 Z M 1.796875 0 "/></g></g></g><g fill="#000000" fill-opacity="1"><g transform="translate(271.119335, 394.362781)"><g><path d="M 0.484375 0 L 0.484375 -13.734375 L 3.140625 -13.734375 L 3.140625 0 Z M 0.484375 0 "/></g></g></g><g fill="#000000" fill-opacity="1"><g transform="translate(274.908616, 394.362781)"><g><path d="M 3.890625 0.125 C 2.773438 0.125 1.929688 -0.210938 1.359375 -0.890625 C 0.785156 -1.566406 0.5 -2.515625 0.5 -3.734375 L 0.5 -10.28125 C 0.5 -11.457031 0.785156 -12.347656 1.359375 -12.953125 C 1.929688 -13.554688 2.773438 -13.859375 3.890625 -13.859375 C 4.992188 -13.859375 5.832031 -13.554688 6.40625 -12.953125 C 6.976562 -12.347656 7.265625 -11.457031 7.265625 -10.28125 L 7.265625 -3.734375 C 7.265625 -2.503906 6.976562 -1.550781 6.40625 -0.875 C 5.832031 -0.207031 4.992188 0.125 3.890625 0.125 Z M 3.890625 -2.390625 C 4.128906 -2.390625 4.289062 -2.492188 4.375 -2.703125 C 4.457031 -2.921875 4.5 -3.222656 4.5 -3.609375 L 4.5 -10.328125 C 4.5 -10.617188 4.457031 -10.859375 4.375 -11.046875 C 4.300781 -11.234375 4.144531 -11.328125 3.90625 -11.328125 C 3.445312 -11.328125 3.21875 -10.984375 3.21875 -10.296875 L 3.21875 -3.59375 C 3.21875 -3.195312 3.265625 -2.894531 3.359375 -2.6875 C 3.453125 -2.488281 3.628906 -2.390625 3.890625 -2.390625 Z M 3.890625 -2.390625 "/></g></g></g><g fill="#000000" fill-opacity="1"><g transform="translate(282.838877, 394.362781)"><g><path d="M 0.609375 0 L 0.609375 -13.734375 L 3.4375 -13.734375 L 4.703125 -7.15625 L 4.703125 -13.734375 L 7.359375 -13.734375 L 7.359375 0 L 4.671875 0 L 3.296875 -6.875 L 3.296875 0 Z M 0.609375 0 "/></g></g></g><g fill="#000000" fill-opacity="1"><g transform="translate(572.385467, 308.278314)"><g><path d="M 0.609375 0 L 0.609375 -13.734375 L 3.359375 -13.734375 L 3.359375 -2.328125 L 6.1875 -2.328125 L 6.1875 0 Z M 0.609375 0 "/></g></g></g><g fill="#000000" fill-opacity="1"><g transform="translate(578.892768, 308.278314)"><g><path d="M 0.609375 0 L 0.609375 -13.734375 L 6.109375 -13.734375 L 6.109375 -11.078125 L 3.40625 -11.078125 L 3.40625 -8.40625 L 6 -8.40625 L 6 -5.8125 L 3.40625 -5.8125 L 3.40625 -2.671875 L 6.28125 -2.671875 L 6.28125 0 Z M 0.609375 0 "/></g></g></g><g fill="#000000" fill-opacity="1"><g transform="translate(585.639888, 308.278314)"><g><path d="M 3.4375 0.125 C 2.445312 0.125 1.707031 -0.222656 1.21875 -0.921875 C 0.738281 -1.617188 0.5 -2.675781 0.5 -4.09375 L 0.5 -10 C 0.5 -11.269531 0.78125 -12.226562 1.34375 -12.875 C 1.90625 -13.53125 2.75 -13.859375 3.875 -13.859375 C 4.78125 -13.859375 5.484375 -13.675781 5.984375 -13.3125 C 6.484375 -12.945312 6.828125 -12.414062 7.015625 -11.71875 C 7.210938 -11.03125 7.3125 -10.144531 7.3125 -9.0625 L 4.625 -9.0625 L 4.625 -10.296875 C 4.625 -10.628906 4.578125 -10.882812 4.484375 -11.0625 C 4.390625 -11.238281 4.226562 -11.328125 4 -11.328125 C 3.476562 -11.328125 3.21875 -10.988281 3.21875 -10.3125 L 3.21875 -3.65625 C 3.21875 -3.238281 3.269531 -2.921875 3.375 -2.703125 C 3.476562 -2.492188 3.664062 -2.390625 3.9375 -2.390625 C 4.195312 -2.390625 4.378906 -2.492188 4.484375 -2.703125 C 4.597656 -2.921875 4.65625 -3.238281 4.65625 -3.65625 L 4.65625 -5.625 L 3.921875 -5.625 L 3.921875 -7.984375 L 7.265625 -7.984375 L 7.265625 0 L 6.171875 0 L 5.703125 -1.15625 C 5.210938 -0.300781 4.457031 0.125 3.4375 0.125 Z M 3.4375 0.125 "/></g></g></g><g fill="#000000" fill-opacity="1"><g transform="translate(593.55416, 308.278314)"><g><path d="M 0.234375 0 L 1.5625 -13.734375 L 6.21875 -13.734375 L 7.53125 0 L 4.921875 0 L 4.734375 -2.21875 L 3.0625 -2.21875 L 2.90625 0 Z M 3.28125 -4.40625 L 4.53125 -4.40625 L 3.921875 -11.390625 L 3.78125 -11.390625 Z M 3.28125 -4.40625 "/></g></g></g><g fill="#000000" fill-opacity="1"><g transform="translate(601.468431, 308.278314)"><g><path d="M 0.609375 0 L 0.609375 -13.734375 L 3.359375 -13.734375 L 3.359375 -2.328125 L 6.1875 -2.328125 L 6.1875 0 Z M 0.609375 0 "/></g></g></g><g fill="#000000" fill-opacity="1"><g transform="translate(607.97573, 308.278314)"><g/></g></g><g fill="#000000" fill-opacity="1"><g transform="translate(611.876925, 308.278314)"><g><path d="M 3.875 0.125 C 2.625 0.125 1.71875 -0.179688 1.15625 -0.796875 C 0.601562 -1.410156 0.328125 -2.40625 0.328125 -3.78125 L 0.328125 -5.125 L 3.03125 -5.125 L 3.03125 -3.421875 C 3.03125 -2.734375 3.25 -2.390625 3.6875 -2.390625 C 3.9375 -2.390625 4.109375 -2.460938 4.203125 -2.609375 C 4.296875 -2.753906 4.34375 -3 4.34375 -3.34375 C 4.34375 -3.789062 4.289062 -4.160156 4.1875 -4.453125 C 4.082031 -4.742188 3.945312 -4.988281 3.78125 -5.1875 C 3.613281 -5.382812 3.316406 -5.691406 2.890625 -6.109375 L 1.703125 -7.28125 C 0.785156 -8.175781 0.328125 -9.171875 0.328125 -10.265625 C 0.328125 -11.429688 0.597656 -12.320312 1.140625 -12.9375 C 1.679688 -13.550781 2.46875 -13.859375 3.5 -13.859375 C 4.738281 -13.859375 5.628906 -13.53125 6.171875 -12.875 C 6.710938 -12.21875 6.984375 -11.191406 6.984375 -9.796875 L 4.1875 -9.796875 L 4.171875 -10.734375 C 4.171875 -10.921875 4.117188 -11.066406 4.015625 -11.171875 C 3.921875 -11.273438 3.78125 -11.328125 3.59375 -11.328125 C 3.382812 -11.328125 3.222656 -11.269531 3.109375 -11.15625 C 3.003906 -11.039062 2.953125 -10.878906 2.953125 -10.671875 C 2.953125 -10.222656 3.207031 -9.757812 3.71875 -9.28125 L 5.328125 -7.75 C 5.691406 -7.382812 6 -7.039062 6.25 -6.71875 C 6.5 -6.394531 6.695312 -6.007812 6.84375 -5.5625 C 6.988281 -5.125 7.0625 -4.601562 7.0625 -4 C 7.0625 -2.644531 6.8125 -1.617188 6.3125 -0.921875 C 5.820312 -0.222656 5.007812 0.125 3.875 0.125 Z M 3.875 0.125 "/></g></g></g><g fill="#000000" fill-opacity="1"><g transform="translate(619.407479, 308.278314)"><g><path d="M 1.796875 0 L 1.796875 -11.09375 L 0.15625 -11.09375 L 0.15625 -13.734375 L 6.171875 -13.734375 L 6.171875 -11.09375 L 4.546875 -11.09375 L 4.546875 0 Z M 1.796875 0 "/></g></g></g><g fill="#000000" fill-opacity="1"><g transform="translate(625.898787, 308.278314)"><g><path d="M 0.234375 0 L 1.5625 -13.734375 L 6.21875 -13.734375 L 7.53125 0 L 4.921875 0 L 4.734375 -2.21875 L 3.0625 -2.21875 L 2.90625 0 Z M 3.28125 -4.40625 L 4.53125 -4.40625 L 3.921875 -11.390625 L 3.78125 -11.390625 Z M 3.28125 -4.40625 "/></g></g></g><g fill="#000000" fill-opacity="1"><g transform="translate(633.813057, 308.278314)"><g><path d="M 1.796875 0 L 1.796875 -11.09375 L 0.15625 -11.09375 L 0.15625 -13.734375 L 6.171875 -13.734375 L 6.171875 -11.09375 L 4.546875 -11.09375 L 4.546875 0 Z M 1.796875 0 "/></g></g></g><g fill="#000000" fill-opacity="1"><g transform="translate(640.304365, 308.278314)"><g><path d="M 3.78125 0.125 C 2.65625 0.125 1.816406 -0.191406 1.265625 -0.828125 C 0.722656 -1.472656 0.453125 -2.421875 0.453125 -3.671875 L 0.453125 -13.734375 L 3.109375 -13.734375 L 3.109375 -3.78125 C 3.109375 -3.351562 3.148438 -3.015625 3.234375 -2.765625 C 3.328125 -2.515625 3.507812 -2.390625 3.78125 -2.390625 C 4.0625 -2.390625 4.242188 -2.507812 4.328125 -2.75 C 4.410156 -2.988281 4.453125 -3.332031 4.453125 -3.78125 L 4.453125 -13.734375 L 7.125 -13.734375 L 7.125 -3.671875 C 7.125 -2.421875 6.847656 -1.472656 6.296875 -0.828125 C 5.753906 -0.191406 4.914062 0.125 3.78125 0.125 Z M 3.78125 0.125 "/></g></g></g><g fill="#000000" fill-opacity="1"><g transform="translate(648.042768, 308.278314)"><g><path d="M 3.875 0.125 C 2.625 0.125 1.71875 -0.179688 1.15625 -0.796875 C 0.601562 -1.410156 0.328125 -2.40625 0.328125 -3.78125 L 0.328125 -5.125 L 3.03125 -5.125 L 3.03125 -3.421875 C 3.03125 -2.734375 3.25 -2.390625 3.6875 -2.390625 C 3.9375 -2.390625 4.109375 -2.460938 4.203125 -2.609375 C 4.296875 -2.753906 4.34375 -3 4.34375 -3.34375 C 4.34375 -3.789062 4.289062 -4.160156 4.1875 -4.453125 C 4.082031 -4.742188 3.945312 -4.988281 3.78125 -5.1875 C 3.613281 -5.382812 3.316406 -5.691406 2.890625 -6.109375 L 1.703125 -7.28125 C 0.785156 -8.175781 0.328125 -9.171875 0.328125 -10.265625 C 0.328125 -11.429688 0.597656 -12.320312 1.140625 -12.9375 C 1.679688 -13.550781 2.46875 -13.859375 3.5 -13.859375 C 4.738281 -13.859375 5.628906 -13.53125 6.171875 -12.875 C 6.710938 -12.21875 6.984375 -11.191406 6.984375 -9.796875 L 4.1875 -9.796875 L 4.171875 -10.734375 C 4.171875 -10.921875 4.117188 -11.066406 4.015625 -11.171875 C 3.921875 -11.273438 3.78125 -11.328125 3.59375 -11.328125 C 3.382812 -11.328125 3.222656 -11.269531 3.109375 -11.15625 C 3.003906 -11.039062 2.953125 -10.878906 2.953125 -10.671875 C 2.953125 -10.222656 3.207031 -9.757812 3.71875 -9.28125 L 5.328125 -7.75 C 5.691406 -7.382812 6 -7.039062 6.25 -6.71875 C 6.5 -6.394531 6.695312 -6.007812 6.84375 -5.5625 C 6.988281 -5.125 7.0625 -4.601562 7.0625 -4 C 7.0625 -2.644531 6.8125 -1.617188 6.3125 -0.921875 C 5.820312 -0.222656 5.007812 0.125 3.875 0.125 Z M 3.875 0.125 "/></g></g></g></svg>