<svg xmlns="http://www.w3.org/2000/svg" xmlns:xlink="http://www.w3.org/1999/xlink" width="1366" zoomAndPan="magnify" viewBox="0 0 1024.5 576" height="768" preserveAspectRatio="xMidYMid meet" version="1.0"><defs><g/><clipPath id="fe48443e34"><path d="M 0 0.140625 L 1024 0.140625 L 1024 575.859375 L 0 575.859375 Z M 0 0.140625 " clip-rule="nonzero"/></clipPath><clipPath id="194d44bc0f"><path d="M 105.738281 238.796875 L 399 238.796875 L 399 337.203125 L 105.738281 337.203125 Z M 105.738281 238.796875 " clip-rule="nonzero"/></clipPath><clipPath id="29c5ab4c8a"><path d="M 132.722656 238.796875 L 371.980469 238.796875 C 386.882812 238.796875 398.964844 250.878906 398.964844 265.78125 L 398.964844 310.214844 C 398.964844 325.121094 386.882812 337.203125 371.980469 337.203125 L 132.722656 337.203125 C 117.820312 337.203125 105.738281 325.121094 105.738281 310.214844 L 105.738281 265.78125 C 105.738281 250.878906 117.820312 238.796875 132.722656 238.796875 Z M 132.722656 238.796875 " clip-rule="nonzero"/></clipPath><clipPath id="fcdf701be1"><path d="M 348.21875 276.417969 L 374.734375 276.417969 L 374.734375 299.582031 L 348.21875 299.582031 Z M 348.21875 276.417969 " clip-rule="nonzero"/></clipPath><clipPath id="1e9ea38e98"><path d="M 361.457031 299.582031 L 374.695312 276.417969 L 348.21875 276.417969 Z M 361.457031 299.582031 " clip-rule="nonzero"/></clipPath><clipPath id="d5fa543288"><path d="M 625.035156 238.796875 L 918.332031 238.796875 L 918.332031 337.203125 L 625.035156 337.203125 Z M 625.035156 238.796875 " clip-rule="nonzero"/></clipPath><clipPath id="7f278bc256"><path d="M 652.019531 238.796875 L 891.277344 238.796875 C 906.179688 238.796875 918.265625 250.878906 918.265625 265.78125 L 918.265625 310.214844 C 918.265625 325.121094 906.179688 337.203125 891.277344 337.203125 L 652.019531 337.203125 C 637.117188 337.203125 625.035156 325.121094 625.035156 310.214844 L 625.035156 265.78125 C 625.035156 250.878906 637.117188 238.796875 652.019531 238.796875 Z M 652.019531 238.796875 " clip-rule="nonzero"/></clipPath><clipPath id="0dfb7aa93b"><path d="M 867.515625 276.417969 L 894 276.417969 L 894 299.582031 L 867.515625 299.582031 Z M 867.515625 276.417969 " clip-rule="nonzero"/></clipPath><clipPath id="897d5f38a1"><path d="M 880.753906 299.582031 L 893.992188 276.417969 L 867.515625 276.417969 Z M 880.753906 299.582031 " clip-rule="nonzero"/></clipPath><clipPath id="1fbce7bea5"><path d="M 365.386719 381.292969 L 658.683594 381.292969 L 658.683594 479.699219 L 365.386719 479.699219 Z M 365.386719 381.292969 " clip-rule="nonzero"/></clipPath><clipPath id="81cd62f64b"><path d="M 392.371094 381.292969 L 631.628906 381.292969 C 646.53125 381.292969 658.617188 393.375 658.617188 408.28125 L 658.617188 452.714844 C 658.617188 467.617188 646.53125 479.699219 631.628906 479.699219 L 392.371094 479.699219 C 377.46875 479.699219 365.386719 467.617188 365.386719 452.714844 L 365.386719 408.28125 C 365.386719 393.375 377.46875 381.292969 392.371094 381.292969 Z M 392.371094 381.292969 " clip-rule="nonzero"/></clipPath><clipPath id="eaf78745cb"><path d="M 607.867188 418.914062 L 634.382812 418.914062 L 634.382812 442.082031 L 607.867188 442.082031 Z M 607.867188 418.914062 " clip-rule="nonzero"/></clipPath><clipPath id="ba2deae673"><path d="M 621.105469 442.082031 L 634.34375 418.914062 L 607.867188 418.914062 Z M 621.105469 442.082031 " clip-rule="nonzero"/></clipPath></defs><g clip-path="url(#fe48443e34)"><path fill="#ffffff" d="M 0 0.140625 L 1024 0.140625 L 1024 575.859375 L 0 575.859375 Z M 0 0.140625 " fill-opacity="1" fill-rule="nonzero"/><path fill="#ffffff" d="M 0 0.140625 L 1024 0.140625 L 1024 575.859375 L 0 575.859375 Z M 0 0.140625 " fill-opacity="1" fill-rule="nonzero"/></g><g clip-path="url(#194d44bc0f)"><g clip-path="url(#29c5ab4c8a)"><path fill="#caba9c" d="M 105.738281 238.796875 L 399.035156 238.796875 L 399.035156 337.203125 L 105.738281 337.203125 Z M 105.738281 238.796875 " fill-opacity="1" fill-rule="nonzero"/></g></g><g fill="#174032" fill-opacity="1"><g transform="translate(182.784676, 304.117141)"><g><path d="M 4.484375 0 L 4.484375 -27.75 L 0.40625 -27.75 L 0.40625 -34.34375 L 15.4375 -34.34375 L 15.4375 -27.75 L 11.359375 -27.75 L 11.359375 0 Z M 4.484375 0 "/></g></g></g><g fill="#174032" fill-opacity="1"><g transform="translate(198.615378, 304.117141)"><g><path d="M 1.515625 0 L 1.515625 -34.34375 L 8.359375 -34.34375 L 8.359375 -22.078125 L 11.59375 -22.078125 L 11.59375 -34.34375 L 18.4375 -34.34375 L 18.4375 0 L 11.59375 0 L 11.59375 -15.59375 L 8.359375 -15.59375 L 8.359375 0 Z M 1.515625 0 "/></g></g></g><g fill="#174032" fill-opacity="1"><g transform="translate(218.563657, 304.117141)"><g><path d="M 0.59375 0 L 3.921875 -34.34375 L 15.546875 -34.34375 L 18.828125 0 L 12.3125 0 L 11.828125 -5.5625 L 7.671875 -5.5625 L 7.28125 0 Z M 8.203125 -11.03125 L 11.3125 -11.03125 L 9.796875 -28.515625 L 9.46875 -28.515625 Z M 8.203125 -11.03125 "/></g></g></g><g fill="#174032" fill-opacity="1"><g transform="translate(237.952272, 304.117141)"><g><path d="M 1.203125 0 L 1.203125 -34.34375 L 7.84375 -34.34375 L 7.84375 0 Z M 1.203125 0 "/></g></g></g><g fill="#174032" fill-opacity="1"><g transform="translate(247.026945, 304.117141)"><g><path d="M 1.515625 0 L 1.515625 -34.34375 L 8.390625 -34.34375 L 8.390625 -5.84375 L 15.46875 -5.84375 L 15.46875 0 Z M 1.515625 0 "/></g></g></g><g fill="#174032" fill-opacity="1"><g transform="translate(262.897624, 304.117141)"><g><path d="M 0.59375 0 L 3.921875 -34.34375 L 15.546875 -34.34375 L 18.828125 0 L 12.3125 0 L 11.828125 -5.5625 L 7.671875 -5.5625 L 7.28125 0 Z M 8.203125 -11.03125 L 11.3125 -11.03125 L 9.796875 -28.515625 L 9.46875 -28.515625 Z M 8.203125 -11.03125 "/></g></g></g><g fill="#174032" fill-opacity="1"><g transform="translate(282.28624, 304.117141)"><g><path d="M 1.515625 0 L 1.515625 -34.34375 L 8.59375 -34.34375 L 11.75 -17.90625 L 11.75 -34.34375 L 18.390625 -34.34375 L 18.390625 0 L 11.671875 0 L 8.234375 -17.1875 L 8.234375 0 Z M 1.515625 0 "/></g></g></g><g fill="#174032" fill-opacity="1"><g transform="translate(302.194541, 304.117141)"><g><path d="M 1.515625 -34.34375 L 11 -34.34375 C 13.445312 -34.34375 15.285156 -33.660156 16.515625 -32.296875 C 17.742188 -30.941406 18.367188 -28.929688 18.390625 -26.265625 L 18.46875 -10.203125 C 18.5 -6.816406 17.914062 -4.269531 16.71875 -2.5625 C 15.519531 -0.851562 13.53125 0 10.75 0 L 1.515625 0 Z M 9.640625 -6.078125 C 10.890625 -6.078125 11.515625 -6.691406 11.515625 -7.921875 L 11.515625 -25.625 C 11.515625 -26.40625 11.453125 -26.988281 11.328125 -27.375 C 11.210938 -27.757812 10.992188 -28.015625 10.671875 -28.140625 C 10.359375 -28.273438 9.867188 -28.34375 9.203125 -28.34375 L 8.4375 -28.34375 L 8.4375 -6.078125 Z M 9.640625 -6.078125 "/></g></g></g><g clip-path="url(#fcdf701be1)"><g clip-path="url(#1e9ea38e98)"><path fill="#3c5f3a" d="M 348.21875 276.417969 L 374.734375 276.417969 L 374.734375 299.582031 L 348.21875 299.582031 Z M 348.21875 276.417969 " fill-opacity="1" fill-rule="nonzero"/></g></g><g fill="#174032" fill-opacity="1"><g transform="translate(400.041225, 102.690455)"><g><path d="M 9.671875 0.359375 C 6.878906 0.359375 4.800781 -0.617188 3.4375 -2.578125 C 2.070312 -4.546875 1.390625 -7.523438 1.390625 -11.515625 L 1.390625 -28.15625 C 1.390625 -31.726562 2.179688 -34.425781 3.765625 -36.25 C 5.359375 -38.082031 7.734375 -39 10.890625 -39 C 13.429688 -39 15.40625 -38.488281 16.8125 -37.46875 C 18.226562 -36.445312 19.207031 -34.960938 19.75 -33.015625 C 20.289062 -31.066406 20.5625 -28.5625 20.5625 -25.5 L 13 -25.5 L 13 -28.96875 C 13 -29.894531 12.867188 -30.613281 12.609375 -31.125 C 12.359375 -31.632812 11.90625 -31.890625 11.25 -31.890625 C 9.78125 -31.890625 9.046875 -30.929688 9.046875 -29.015625 L 9.046875 -10.296875 C 9.046875 -9.128906 9.191406 -8.242188 9.484375 -7.640625 C 9.785156 -7.046875 10.3125 -6.75 11.0625 -6.75 C 11.8125 -6.75 12.335938 -7.046875 12.640625 -7.640625 C 12.941406 -8.242188 13.09375 -9.128906 13.09375 -10.296875 L 13.09375 -15.828125 L 11.015625 -15.828125 L 11.015625 -22.484375 L 20.46875 -22.484375 L 20.46875 0 L 17.359375 0 L 16.0625 -3.234375 C 14.675781 -0.835938 12.546875 0.359375 9.671875 0.359375 Z M 9.671875 0.359375 "/></g></g></g><g fill="#174032" fill-opacity="1"><g transform="translate(421.855559, 102.690455)"><g><path d="M 1.703125 0 L 1.703125 -38.640625 L 17.1875 -38.640625 L 17.1875 -31.171875 L 9.578125 -31.171875 L 9.578125 -23.65625 L 16.875 -23.65625 L 16.875 -16.375 L 9.578125 -16.375 L 9.578125 -7.515625 L 17.671875 -7.515625 L 17.671875 0 Z M 1.703125 0 "/></g></g></g><g fill="#174032" fill-opacity="1"><g transform="translate(440.386493, 102.690455)"><g><path d="M 5.03125 0 L 5.03125 -31.21875 L 0.453125 -31.21875 L 0.453125 -38.640625 L 17.359375 -38.640625 L 17.359375 -31.21875 L 12.78125 -31.21875 L 12.78125 0 Z M 5.03125 0 "/></g></g></g><g fill="#174032" fill-opacity="1"><g transform="translate(458.197784, 102.690455)"><g/></g></g><g fill="#174032" fill-opacity="1"><g transform="translate(468.722642, 102.690455)"><g><path d="M 1.34375 0 L 1.34375 -38.640625 L 8.8125 -38.640625 L 8.8125 0 Z M 1.34375 0 "/></g></g></g><g fill="#174032" fill-opacity="1"><g transform="translate(478.932643, 102.690455)"><g><path d="M 1.703125 0 L 1.703125 -38.640625 L 9.671875 -38.640625 L 13.21875 -20.15625 L 13.21875 -38.640625 L 20.6875 -38.640625 L 20.6875 0 L 13.140625 0 L 9.265625 -19.34375 L 9.265625 0 Z M 1.703125 0 "/></g></g></g><g fill="#174032" fill-opacity="1"><g transform="translate(501.331691, 102.690455)"><g><path d="M 5.265625 0 L 0.5 -38.6875 L 7.875 -38.6875 L 10.703125 -12.375 L 13.21875 -38.6875 L 20.609375 -38.6875 L 15.828125 0 Z M 5.265625 0 "/></g></g></g><g fill="#174032" fill-opacity="1"><g transform="translate(522.426372, 102.690455)"><g><path d="M 10.9375 0.359375 C 7.8125 0.359375 5.4375 -0.59375 3.8125 -2.5 C 2.195312 -4.40625 1.390625 -7.082031 1.390625 -10.53125 L 1.390625 -28.921875 C 1.390625 -32.253906 2.195312 -34.765625 3.8125 -36.453125 C 5.4375 -38.148438 7.8125 -39 10.9375 -39 C 14.050781 -39 16.414062 -38.148438 18.03125 -36.453125 C 19.65625 -34.765625 20.46875 -32.253906 20.46875 -28.921875 L 20.46875 -10.53125 C 20.46875 -7.050781 19.65625 -4.363281 18.03125 -2.46875 C 16.414062 -0.582031 14.050781 0.359375 10.9375 0.359375 Z M 10.9375 -6.75 C 11.625 -6.75 12.085938 -7.046875 12.328125 -7.640625 C 12.566406 -8.242188 12.6875 -9.085938 12.6875 -10.171875 L 12.6875 -29.0625 C 12.6875 -29.894531 12.570312 -30.570312 12.34375 -31.09375 C 12.125 -31.625 11.664062 -31.890625 10.96875 -31.890625 C 9.6875 -31.890625 9.046875 -30.914062 9.046875 -28.96875 L 9.046875 -10.125 C 9.046875 -9.007812 9.179688 -8.164062 9.453125 -7.59375 C 9.722656 -7.03125 10.21875 -6.75 10.9375 -6.75 Z M 10.9375 -6.75 "/></g></g></g><g fill="#174032" fill-opacity="1"><g transform="translate(544.285682, 102.690455)"><g><path d="M 1.703125 0 L 1.703125 -38.640625 L 9.453125 -38.640625 L 9.453125 -6.5625 L 17.40625 -6.5625 L 17.40625 0 Z M 1.703125 0 "/></g></g></g><g fill="#174032" fill-opacity="1"><g transform="translate(562.14195, 102.690455)"><g><path d="M 5.265625 0 L 0.5 -38.6875 L 7.875 -38.6875 L 10.703125 -12.375 L 13.21875 -38.6875 L 20.609375 -38.6875 L 15.828125 0 Z M 5.265625 0 "/></g></g></g><g fill="#174032" fill-opacity="1"><g transform="translate(583.236631, 102.690455)"><g><path d="M 1.703125 0 L 1.703125 -38.640625 L 17.1875 -38.640625 L 17.1875 -31.171875 L 9.578125 -31.171875 L 9.578125 -23.65625 L 16.875 -23.65625 L 16.875 -16.375 L 9.578125 -16.375 L 9.578125 -7.515625 L 17.671875 -7.515625 L 17.671875 0 Z M 1.703125 0 "/></g></g></g><g fill="#174032" fill-opacity="1"><g transform="translate(601.767564, 102.690455)"><g><path d="M 1.703125 -38.640625 L 12.375 -38.640625 C 15.132812 -38.640625 17.203125 -37.875 18.578125 -36.34375 C 19.953125 -34.8125 20.65625 -32.550781 20.6875 -29.5625 L 20.78125 -11.46875 C 20.8125 -7.664062 20.148438 -4.800781 18.796875 -2.875 C 17.453125 -0.957031 15.21875 0 12.09375 0 L 1.703125 0 Z M 10.84375 -6.84375 C 12.25 -6.84375 12.953125 -7.53125 12.953125 -8.90625 L 12.953125 -28.828125 C 12.953125 -29.703125 12.882812 -30.351562 12.75 -30.78125 C 12.613281 -31.21875 12.363281 -31.507812 12 -31.65625 C 11.644531 -31.8125 11.09375 -31.890625 10.34375 -31.890625 L 9.484375 -31.890625 L 9.484375 -6.84375 Z M 10.84375 -6.84375 "/></g></g></g><g fill="#174032" fill-opacity="1"><g transform="translate(422.553674, 147.668502)"><g><path d="M 7.828125 0.453125 C 5.515625 0.453125 3.757812 -0.367188 2.5625 -2.015625 C 1.363281 -3.671875 0.765625 -5.816406 0.765625 -8.453125 C 0.765625 -11.390625 1.179688 -13.75 2.015625 -15.53125 C 2.859375 -17.320312 4.179688 -18.894531 5.984375 -20.25 C 4.515625 -23.125 3.78125 -25.609375 3.78125 -27.703125 C 3.78125 -29.898438 4.488281 -31.617188 5.90625 -32.859375 C 7.332031 -34.109375 9.171875 -34.734375 11.421875 -34.734375 C 13.640625 -34.734375 15.460938 -34.140625 16.890625 -32.953125 C 18.316406 -31.765625 19.03125 -30.109375 19.03125 -27.984375 C 19.03125 -24.859375 17.304688 -21.929688 13.859375 -19.203125 L 15.25 -15.921875 C 16.09375 -18.140625 17.351562 -19.863281 19.03125 -21.09375 L 22.09375 -16.328125 C 20.320312 -14.953125 18.878906 -12.671875 17.765625 -9.484375 L 21.6875 0 L 14.21875 0 L 13.40625 -2.109375 C 12.769531 -1.359375 11.960938 -0.742188 10.984375 -0.265625 C 10.015625 0.210938 8.960938 0.453125 7.828125 0.453125 Z M 12.234375 -24.78125 C 12.535156 -25.113281 12.804688 -25.585938 13.046875 -26.203125 C 13.285156 -26.816406 13.40625 -27.410156 13.40625 -27.984375 C 13.40625 -28.878906 12.96875 -29.328125 12.09375 -29.328125 C 11.738281 -29.328125 11.457031 -29.195312 11.25 -28.9375 C 11.039062 -28.6875 10.9375 -28.367188 10.9375 -27.984375 C 10.9375 -27.203125 11.25 -26 11.875 -24.375 Z M 9.046875 -5.171875 C 9.609375 -5.171875 10.082031 -5.390625 10.46875 -5.828125 C 10.863281 -6.265625 11.125 -6.765625 11.25 -7.328125 L 8.59375 -13.71875 L 8.328125 -13.3125 C 8.085938 -12.957031 7.890625 -12.390625 7.734375 -11.609375 C 7.585938 -10.828125 7.515625 -10.0625 7.515625 -9.3125 L 7.515625 -9.09375 C 7.515625 -7.914062 7.601562 -6.96875 7.78125 -6.25 C 7.957031 -5.53125 8.378906 -5.171875 9.046875 -5.171875 Z M 9.046875 -5.171875 "/></g></g></g><g fill="#174032" fill-opacity="1"><g transform="translate(445.267567, 147.668502)"><g/></g></g><g fill="#174032" fill-opacity="1"><g transform="translate(455.792425, 147.668502)"><g><path d="M 10.890625 0.359375 C 7.378906 0.359375 4.84375 -0.507812 3.28125 -2.25 C 1.71875 -3.988281 0.9375 -6.789062 0.9375 -10.65625 L 0.9375 -14.4375 L 8.546875 -14.4375 L 8.546875 -9.625 C 8.546875 -7.707031 9.160156 -6.75 10.390625 -6.75 C 11.078125 -6.75 11.554688 -6.953125 11.828125 -7.359375 C 12.097656 -7.765625 12.234375 -8.445312 12.234375 -9.40625 C 12.234375 -10.664062 12.082031 -11.707031 11.78125 -12.53125 C 11.488281 -13.351562 11.109375 -14.039062 10.640625 -14.59375 C 10.171875 -15.144531 9.335938 -16.007812 8.140625 -17.1875 L 4.8125 -20.515625 C 2.226562 -23.035156 0.9375 -25.820312 0.9375 -28.875 C 0.9375 -32.175781 1.691406 -34.6875 3.203125 -36.40625 C 4.722656 -38.132812 6.941406 -39 9.859375 -39 C 13.328125 -39 15.828125 -38.078125 17.359375 -36.234375 C 18.890625 -34.390625 19.65625 -31.503906 19.65625 -27.578125 L 11.78125 -27.578125 L 11.734375 -30.234375 C 11.734375 -30.742188 11.59375 -31.144531 11.3125 -31.4375 C 11.03125 -31.738281 10.632812 -31.890625 10.125 -31.890625 C 9.519531 -31.890625 9.066406 -31.722656 8.765625 -31.390625 C 8.472656 -31.066406 8.328125 -30.617188 8.328125 -30.046875 C 8.328125 -28.785156 9.046875 -27.484375 10.484375 -26.140625 L 14.984375 -21.8125 C 16.023438 -20.789062 16.890625 -19.820312 17.578125 -18.90625 C 18.273438 -18 18.832031 -16.921875 19.25 -15.671875 C 19.675781 -14.429688 19.890625 -12.957031 19.890625 -11.25 C 19.890625 -7.4375 19.191406 -4.546875 17.796875 -2.578125 C 16.398438 -0.617188 14.097656 0.359375 10.890625 0.359375 Z M 10.890625 0.359375 "/></g></g></g><g fill="#174032" fill-opacity="1"><g transform="translate(476.527285, 147.668502)"><g><path d="M 10.65625 0.359375 C 7.476562 0.359375 5.117188 -0.535156 3.578125 -2.328125 C 2.035156 -4.128906 1.265625 -6.800781 1.265625 -10.34375 L 1.265625 -38.640625 L 8.765625 -38.640625 L 8.765625 -10.65625 C 8.765625 -9.425781 8.882812 -8.46875 9.125 -7.78125 C 9.363281 -7.09375 9.875 -6.75 10.65625 -6.75 C 11.4375 -6.75 11.945312 -7.082031 12.1875 -7.75 C 12.425781 -8.425781 12.546875 -9.394531 12.546875 -10.65625 L 12.546875 -38.640625 L 20.0625 -38.640625 L 20.0625 -10.34375 C 20.0625 -6.800781 19.285156 -4.128906 17.734375 -2.328125 C 16.191406 -0.535156 13.832031 0.359375 10.65625 0.359375 Z M 10.65625 0.359375 "/></g></g></g><g fill="#174032" fill-opacity="1"><g transform="translate(497.846858, 147.668502)"><g><path d="M 1.703125 -38.640625 L 11.921875 -38.640625 C 15.003906 -38.640625 17.207031 -37.640625 18.53125 -35.640625 C 19.851562 -33.648438 20.515625 -30.738281 20.515625 -26.90625 C 20.515625 -23.0625 19.925781 -20.164062 18.75 -18.21875 C 17.582031 -16.269531 15.484375 -15.296875 12.453125 -15.296875 L 9.3125 -15.296875 L 9.3125 0 L 1.703125 0 Z M 9.765625 -22.265625 C 10.691406 -22.265625 11.367188 -22.4375 11.796875 -22.78125 C 12.234375 -23.125 12.519531 -23.617188 12.65625 -24.265625 C 12.789062 -24.910156 12.859375 -25.832031 12.859375 -27.03125 C 12.859375 -28.65625 12.675781 -29.828125 12.3125 -30.546875 C 11.957031 -31.265625 11.242188 -31.625 10.171875 -31.625 L 9.3125 -31.625 L 9.3125 -22.265625 Z M 9.765625 -22.265625 "/></g></g></g><g fill="#174032" fill-opacity="1"><g transform="translate(519.076479, 147.668502)"><g><path d="M 1.703125 -38.640625 L 11.921875 -38.640625 C 15.003906 -38.640625 17.207031 -37.640625 18.53125 -35.640625 C 19.851562 -33.648438 20.515625 -30.738281 20.515625 -26.90625 C 20.515625 -23.0625 19.925781 -20.164062 18.75 -18.21875 C 17.582031 -16.269531 15.484375 -15.296875 12.453125 -15.296875 L 9.3125 -15.296875 L 9.3125 0 L 1.703125 0 Z M 9.765625 -22.265625 C 10.691406 -22.265625 11.367188 -22.4375 11.796875 -22.78125 C 12.234375 -23.125 12.519531 -23.617188 12.65625 -24.265625 C 12.789062 -24.910156 12.859375 -25.832031 12.859375 -27.03125 C 12.859375 -28.65625 12.675781 -29.828125 12.3125 -30.546875 C 11.957031 -31.265625 11.242188 -31.625 10.171875 -31.625 L 9.3125 -31.625 L 9.3125 -22.265625 Z M 9.765625 -22.265625 "/></g></g></g><g fill="#174032" fill-opacity="1"><g transform="translate(540.3061, 147.668502)"><g><path d="M 10.9375 0.359375 C 7.8125 0.359375 5.4375 -0.59375 3.8125 -2.5 C 2.195312 -4.40625 1.390625 -7.082031 1.390625 -10.53125 L 1.390625 -28.921875 C 1.390625 -32.253906 2.195312 -34.765625 3.8125 -36.453125 C 5.4375 -38.148438 7.8125 -39 10.9375 -39 C 14.050781 -39 16.414062 -38.148438 18.03125 -36.453125 C 19.65625 -34.765625 20.46875 -32.253906 20.46875 -28.921875 L 20.46875 -10.53125 C 20.46875 -7.050781 19.65625 -4.363281 18.03125 -2.46875 C 16.414062 -0.582031 14.050781 0.359375 10.9375 0.359375 Z M 10.9375 -6.75 C 11.625 -6.75 12.085938 -7.046875 12.328125 -7.640625 C 12.566406 -8.242188 12.6875 -9.085938 12.6875 -10.171875 L 12.6875 -29.0625 C 12.6875 -29.894531 12.570312 -30.570312 12.34375 -31.09375 C 12.125 -31.625 11.664062 -31.890625 10.96875 -31.890625 C 9.6875 -31.890625 9.046875 -30.914062 9.046875 -28.96875 L 9.046875 -10.125 C 9.046875 -9.007812 9.179688 -8.164062 9.453125 -7.59375 C 9.722656 -7.03125 10.21875 -6.75 10.9375 -6.75 Z M 10.9375 -6.75 "/></g></g></g><g fill="#174032" fill-opacity="1"><g transform="translate(562.16541, 147.668502)"><g><path d="M 1.703125 -38.640625 L 13.578125 -38.640625 C 15.472656 -38.640625 16.9375 -38.210938 17.96875 -37.359375 C 19 -36.503906 19.695312 -35.300781 20.0625 -33.75 C 20.425781 -32.207031 20.609375 -30.238281 20.609375 -27.84375 C 20.609375 -25.65625 20.320312 -23.945312 19.75 -22.71875 C 19.175781 -21.488281 18.1875 -20.632812 16.78125 -20.15625 C 17.945312 -19.914062 18.789062 -19.328125 19.3125 -18.390625 C 19.84375 -17.460938 20.109375 -16.207031 20.109375 -14.625 L 20.015625 0 L 12.453125 0 L 12.453125 -15.109375 C 12.453125 -16.191406 12.242188 -16.882812 11.828125 -17.1875 C 11.410156 -17.488281 10.644531 -17.640625 9.53125 -17.640625 L 9.53125 0 L 1.703125 0 Z M 11.421875 -24.34375 C 12.503906 -24.34375 13.046875 -25.507812 13.046875 -27.84375 C 13.046875 -28.863281 13 -29.628906 12.90625 -30.140625 C 12.820312 -30.648438 12.660156 -31 12.421875 -31.1875 C 12.179688 -31.382812 11.832031 -31.484375 11.375 -31.484375 L 9.578125 -31.484375 L 9.578125 -24.34375 Z M 11.421875 -24.34375 "/></g></g></g><g fill="#174032" fill-opacity="1"><g transform="translate(583.619924, 147.668502)"><g><path d="M 5.03125 0 L 5.03125 -31.21875 L 0.453125 -31.21875 L 0.453125 -38.640625 L 17.359375 -38.640625 L 17.359375 -31.21875 L 12.78125 -31.21875 L 12.78125 0 Z M 5.03125 0 "/></g></g></g><g clip-path="url(#d5fa543288)"><g clip-path="url(#7f278bc256)"><path fill="#caba9c" d="M 625.035156 238.796875 L 918.332031 238.796875 L 918.332031 337.203125 L 625.035156 337.203125 Z M 625.035156 238.796875 " fill-opacity="1" fill-rule="nonzero"/></g></g><g fill="#174032" fill-opacity="1"><g transform="translate(695.944038, 304.117141)"><g><path d="M 1.203125 0 L 1.203125 -34.34375 L 7.84375 -34.34375 L 7.84375 0 Z M 1.203125 0 "/></g></g></g><g fill="#174032" fill-opacity="1"><g transform="translate(705.01871, 304.117141)"><g><path d="M 1.515625 0 L 1.515625 -34.34375 L 8.59375 -34.34375 L 11.75 -17.90625 L 11.75 -34.34375 L 18.390625 -34.34375 L 18.390625 0 L 11.671875 0 L 8.234375 -17.1875 L 8.234375 0 Z M 1.515625 0 "/></g></g></g><g fill="#174032" fill-opacity="1"><g transform="translate(724.927012, 304.117141)"><g><path d="M 1.515625 -34.34375 L 11 -34.34375 C 13.445312 -34.34375 15.285156 -33.660156 16.515625 -32.296875 C 17.742188 -30.941406 18.367188 -28.929688 18.390625 -26.265625 L 18.46875 -10.203125 C 18.5 -6.816406 17.914062 -4.269531 16.71875 -2.5625 C 15.519531 -0.851562 13.53125 0 10.75 0 L 1.515625 0 Z M 9.640625 -6.078125 C 10.890625 -6.078125 11.515625 -6.691406 11.515625 -7.921875 L 11.515625 -25.625 C 11.515625 -26.40625 11.453125 -26.988281 11.328125 -27.375 C 11.210938 -27.757812 10.992188 -28.015625 10.671875 -28.140625 C 10.359375 -28.273438 9.867188 -28.34375 9.203125 -28.34375 L 8.4375 -28.34375 L 8.4375 -6.078125 Z M 9.640625 -6.078125 "/></g></g></g><g fill="#174032" fill-opacity="1"><g transform="translate(744.635437, 304.117141)"><g><path d="M 9.71875 0.3125 C 6.945312 0.3125 4.835938 -0.53125 3.390625 -2.21875 C 1.953125 -3.914062 1.234375 -6.296875 1.234375 -9.359375 L 1.234375 -25.703125 C 1.234375 -28.660156 1.953125 -30.894531 3.390625 -32.40625 C 4.835938 -33.914062 6.945312 -34.671875 9.71875 -34.671875 C 12.488281 -34.671875 14.59375 -33.914062 16.03125 -32.40625 C 17.46875 -30.894531 18.1875 -28.660156 18.1875 -25.703125 L 18.1875 -9.359375 C 18.1875 -6.265625 17.46875 -3.878906 16.03125 -2.203125 C 14.59375 -0.523438 12.488281 0.3125 9.71875 0.3125 Z M 9.71875 -6 C 10.332031 -6 10.742188 -6.265625 10.953125 -6.796875 C 11.171875 -7.328125 11.28125 -8.070312 11.28125 -9.03125 L 11.28125 -25.828125 C 11.28125 -26.578125 11.175781 -27.179688 10.96875 -27.640625 C 10.769531 -28.109375 10.363281 -28.34375 9.75 -28.34375 C 8.601562 -28.34375 8.03125 -27.476562 8.03125 -25.75 L 8.03125 -9 C 8.03125 -8.007812 8.148438 -7.257812 8.390625 -6.75 C 8.628906 -6.25 9.070312 -6 9.71875 -6 Z M 9.71875 -6 "/></g></g></g><g fill="#174032" fill-opacity="1"><g transform="translate(764.064018, 304.117141)"><g><path d="M 1.515625 0 L 1.515625 -34.34375 L 8.59375 -34.34375 L 11.75 -17.90625 L 11.75 -34.34375 L 18.390625 -34.34375 L 18.390625 0 L 11.671875 0 L 8.234375 -17.1875 L 8.234375 0 Z M 1.515625 0 "/></g></g></g><g fill="#174032" fill-opacity="1"><g transform="translate(783.97232, 304.117141)"><g><path d="M 1.515625 0 L 1.515625 -34.34375 L 15.28125 -34.34375 L 15.28125 -27.703125 L 8.515625 -27.703125 L 8.515625 -21.03125 L 15 -21.03125 L 15 -14.546875 L 8.515625 -14.546875 L 8.515625 -6.671875 L 15.71875 -6.671875 L 15.71875 0 Z M 1.515625 0 "/></g></g></g><g fill="#174032" fill-opacity="1"><g transform="translate(800.442641, 304.117141)"><g><path d="M 9.671875 0.3125 C 6.554688 0.3125 4.304688 -0.457031 2.921875 -2 C 1.535156 -3.539062 0.84375 -6.03125 0.84375 -9.46875 L 0.84375 -12.828125 L 7.59375 -12.828125 L 7.59375 -8.5625 C 7.59375 -6.851562 8.140625 -6 9.234375 -6 C 9.847656 -6 10.273438 -6.175781 10.515625 -6.53125 C 10.753906 -6.894531 10.875 -7.503906 10.875 -8.359375 C 10.875 -9.472656 10.738281 -10.394531 10.46875 -11.125 C 10.207031 -11.863281 9.867188 -12.476562 9.453125 -12.96875 C 9.046875 -13.46875 8.304688 -14.238281 7.234375 -15.28125 L 4.28125 -18.234375 C 1.988281 -20.472656 0.84375 -22.953125 0.84375 -25.671875 C 0.84375 -28.597656 1.515625 -30.828125 2.859375 -32.359375 C 4.203125 -33.898438 6.164062 -34.671875 8.75 -34.671875 C 11.84375 -34.671875 14.066406 -33.847656 15.421875 -32.203125 C 16.785156 -30.566406 17.46875 -28.003906 17.46875 -24.515625 L 10.46875 -24.515625 L 10.4375 -26.875 C 10.4375 -27.320312 10.304688 -27.675781 10.046875 -27.9375 C 9.796875 -28.207031 9.445312 -28.34375 9 -28.34375 C 8.46875 -28.34375 8.066406 -28.195312 7.796875 -27.90625 C 7.523438 -27.613281 7.390625 -27.210938 7.390625 -26.703125 C 7.390625 -25.585938 8.03125 -24.429688 9.3125 -23.234375 L 13.3125 -19.390625 C 14.25 -18.484375 15.019531 -17.625 15.625 -16.8125 C 16.238281 -16 16.734375 -15.039062 17.109375 -13.9375 C 17.484375 -12.832031 17.671875 -11.519531 17.671875 -10 C 17.671875 -6.613281 17.050781 -4.046875 15.8125 -2.296875 C 14.570312 -0.554688 12.523438 0.3125 9.671875 0.3125 Z M 9.671875 0.3125 "/></g></g></g><g fill="#174032" fill-opacity="1"><g transform="translate(818.871817, 304.117141)"><g><path d="M 1.203125 0 L 1.203125 -34.34375 L 7.84375 -34.34375 L 7.84375 0 Z M 1.203125 0 "/></g></g></g><g fill="#174032" fill-opacity="1"><g transform="translate(827.94649, 304.117141)"><g><path d="M 0.59375 0 L 3.921875 -34.34375 L 15.546875 -34.34375 L 18.828125 0 L 12.3125 0 L 11.828125 -5.5625 L 7.671875 -5.5625 L 7.28125 0 Z M 8.203125 -11.03125 L 11.3125 -11.03125 L 9.796875 -28.515625 L 9.46875 -28.515625 Z M 8.203125 -11.03125 "/></g></g></g><g clip-path="url(#0dfb7aa93b)"><g clip-path="url(#897d5f38a1)"><path fill="#3c5f3a" d="M 867.515625 276.417969 L 894.03125 276.417969 L 894.03125 299.582031 L 867.515625 299.582031 Z M 867.515625 276.417969 " fill-opacity="1" fill-rule="nonzero"/></g></g><g clip-path="url(#1fbce7bea5)"><g clip-path="url(#81cd62f64b)"><path fill="#caba9c" d="M 365.386719 381.292969 L 658.683594 381.292969 L 658.683594 479.699219 L 365.386719 479.699219 Z M 365.386719 381.292969 " fill-opacity="1" fill-rule="nonzero"/></g></g><g fill="#174032" fill-opacity="1"><g transform="translate(457.402463, 446.614383)"><g><path d="M 9.71875 0.3125 C 6.945312 0.3125 4.835938 -0.53125 3.390625 -2.21875 C 1.953125 -3.914062 1.234375 -6.296875 1.234375 -9.359375 L 1.234375 -25.703125 C 1.234375 -28.660156 1.953125 -30.894531 3.390625 -32.40625 C 4.835938 -33.914062 6.945312 -34.671875 9.71875 -34.671875 C 12.488281 -34.671875 14.59375 -33.914062 16.03125 -32.40625 C 17.46875 -30.894531 18.1875 -28.660156 18.1875 -25.703125 L 18.1875 -9.359375 C 18.1875 -6.265625 17.46875 -3.878906 16.03125 -2.203125 C 14.59375 -0.523438 12.488281 0.3125 9.71875 0.3125 Z M 9.71875 -6 C 10.332031 -6 10.742188 -6.265625 10.953125 -6.796875 C 11.171875 -7.328125 11.28125 -8.070312 11.28125 -9.03125 L 11.28125 -25.828125 C 11.28125 -26.578125 11.175781 -27.179688 10.96875 -27.640625 C 10.769531 -28.109375 10.363281 -28.34375 9.75 -28.34375 C 8.601562 -28.34375 8.03125 -27.476562 8.03125 -25.75 L 8.03125 -9 C 8.03125 -8.007812 8.148438 -7.257812 8.390625 -6.75 C 8.628906 -6.25 9.070312 -6 9.71875 -6 Z M 9.71875 -6 "/></g></g></g><g fill="#174032" fill-opacity="1"><g transform="translate(476.831044, 446.614383)"><g><path d="M 4.484375 0 L 4.484375 -27.75 L 0.40625 -27.75 L 0.40625 -34.34375 L 15.4375 -34.34375 L 15.4375 -27.75 L 11.359375 -27.75 L 11.359375 0 Z M 4.484375 0 "/></g></g></g><g fill="#174032" fill-opacity="1"><g transform="translate(492.661746, 446.614383)"><g><path d="M 1.515625 0 L 1.515625 -34.34375 L 8.359375 -34.34375 L 8.359375 -22.078125 L 11.59375 -22.078125 L 11.59375 -34.34375 L 18.4375 -34.34375 L 18.4375 0 L 11.59375 0 L 11.59375 -15.59375 L 8.359375 -15.59375 L 8.359375 0 Z M 1.515625 0 "/></g></g></g><g fill="#174032" fill-opacity="1"><g transform="translate(512.610025, 446.614383)"><g><path d="M 1.515625 0 L 1.515625 -34.34375 L 15.28125 -34.34375 L 15.28125 -27.703125 L 8.515625 -27.703125 L 8.515625 -21.03125 L 15 -21.03125 L 15 -14.546875 L 8.515625 -14.546875 L 8.515625 -6.671875 L 15.71875 -6.671875 L 15.71875 0 Z M 1.515625 0 "/></g></g></g><g fill="#174032" fill-opacity="1"><g transform="translate(529.080346, 446.614383)"><g><path d="M 1.515625 -34.34375 L 12.078125 -34.34375 C 13.753906 -34.34375 15.050781 -33.960938 15.96875 -33.203125 C 16.894531 -32.441406 17.515625 -31.375 17.828125 -30 C 18.148438 -28.632812 18.3125 -26.882812 18.3125 -24.75 C 18.3125 -22.800781 18.054688 -21.28125 17.546875 -20.1875 C 17.046875 -19.09375 16.171875 -18.332031 14.921875 -17.90625 C 15.953125 -17.695312 16.703125 -17.175781 17.171875 -16.34375 C 17.640625 -15.519531 17.875 -14.40625 17.875 -13 L 17.796875 0 L 11.078125 0 L 11.078125 -13.4375 C 11.078125 -14.394531 10.890625 -15.003906 10.515625 -15.265625 C 10.140625 -15.535156 9.460938 -15.671875 8.484375 -15.671875 L 8.484375 0 L 1.515625 0 Z M 10.15625 -21.625 C 11.113281 -21.625 11.59375 -22.664062 11.59375 -24.75 C 11.59375 -25.65625 11.550781 -26.332031 11.46875 -26.78125 C 11.394531 -27.238281 11.25 -27.550781 11.03125 -27.71875 C 10.820312 -27.894531 10.515625 -27.984375 10.109375 -27.984375 L 8.515625 -27.984375 L 8.515625 -21.625 Z M 10.15625 -21.625 "/></g></g></g><g fill="#174032" fill-opacity="1"><g transform="translate(548.14914, 446.614383)"><g><path d="M 9.671875 0.3125 C 6.554688 0.3125 4.304688 -0.457031 2.921875 -2 C 1.535156 -3.539062 0.84375 -6.03125 0.84375 -9.46875 L 0.84375 -12.828125 L 7.59375 -12.828125 L 7.59375 -8.5625 C 7.59375 -6.851562 8.140625 -6 9.234375 -6 C 9.847656 -6 10.273438 -6.175781 10.515625 -6.53125 C 10.753906 -6.894531 10.875 -7.503906 10.875 -8.359375 C 10.875 -9.472656 10.738281 -10.394531 10.46875 -11.125 C 10.207031 -11.863281 9.867188 -12.476562 9.453125 -12.96875 C 9.046875 -13.46875 8.304688 -14.238281 7.234375 -15.28125 L 4.28125 -18.234375 C 1.988281 -20.472656 0.84375 -22.953125 0.84375 -25.671875 C 0.84375 -28.597656 1.515625 -30.828125 2.859375 -32.359375 C 4.203125 -33.898438 6.164062 -34.671875 8.75 -34.671875 C 11.84375 -34.671875 14.066406 -33.847656 15.421875 -32.203125 C 16.785156 -30.566406 17.46875 -28.003906 17.46875 -24.515625 L 10.46875 -24.515625 L 10.4375 -26.875 C 10.4375 -27.320312 10.304688 -27.675781 10.046875 -27.9375 C 9.796875 -28.207031 9.445312 -28.34375 9 -28.34375 C 8.46875 -28.34375 8.066406 -28.195312 7.796875 -27.90625 C 7.523438 -27.613281 7.390625 -27.210938 7.390625 -26.703125 C 7.390625 -25.585938 8.03125 -24.429688 9.3125 -23.234375 L 13.3125 -19.390625 C 14.25 -18.484375 15.019531 -17.625 15.625 -16.8125 C 16.238281 -16 16.734375 -15.039062 17.109375 -13.9375 C 17.484375 -12.832031 17.671875 -11.519531 17.671875 -10 C 17.671875 -6.613281 17.050781 -4.046875 15.8125 -2.296875 C 14.570312 -0.554688 12.523438 0.3125 9.671875 0.3125 Z M 9.671875 0.3125 "/></g></g></g><g clip-path="url(#eaf78745cb)"><g clip-path="url(#ba2deae673)"><path fill="#3c5f3a" d="M 607.867188 418.914062 L 634.382812 418.914062 L 634.382812 442.082031 L 607.867188 442.082031 Z M 607.867188 418.914062 " fill-opacity="1" fill-rule="nonzero"/></g></g></svg>