<svg width="352" height="62" viewBox="0 0 352 62" fill="none" xmlns="http://www.w3.org/2000/svg">
<g filter="url(#filter0_dd_1_720)">
<rect x="3.84595" y="3" width="345" height="54" rx="10" fill="white"/>
<rect width="24" height="24" transform="translate(18.8459 18)" fill="white"/>
<path fill-rule="evenodd" clip-rule="evenodd" d="M41.8859 30.2613C41.8859 29.4459 41.8128 28.6618 41.6769 27.9091H30.8459V32.3575H37.035C36.7684 33.795 35.9582 35.0129 34.7403 35.8284V38.7138H38.4569C40.6314 36.7118 41.8859 33.7636 41.8859 30.2613Z" fill="#4285F4"/>
<path fill-rule="evenodd" clip-rule="evenodd" d="M30.8459 41.4998C33.9509 41.4998 36.5541 40.47 38.4568 38.7137L34.7402 35.8282C33.7105 36.5182 32.3932 36.9259 30.8459 36.9259C27.8507 36.9259 25.3155 34.903 24.4111 32.1848H20.5691V35.1644C22.4614 38.9228 26.3505 41.4998 30.8459 41.4998Z" fill="#34A853"/>
<path fill-rule="evenodd" clip-rule="evenodd" d="M24.4112 32.1851C24.1812 31.4951 24.0505 30.7581 24.0505 30.0001C24.0505 29.2422 24.1812 28.5051 24.4112 27.8151V24.8356H20.5691C19.7903 26.3881 19.3459 28.1444 19.3459 30.0001C19.3459 31.8558 19.7903 33.6122 20.5691 35.1647L24.4112 32.1851Z" fill="#FBBC05"/>
<path fill-rule="evenodd" clip-rule="evenodd" d="M30.8459 23.0739C32.5343 23.0739 34.0502 23.6541 35.242 24.7936L38.5405 21.4952C36.5489 19.6395 33.9457 18.5 30.8459 18.5C26.3505 18.5 22.4614 21.077 20.5691 24.8355L24.4111 27.815C25.3155 25.0968 27.8507 23.0739 30.8459 23.0739Z" fill="#EA4335"/>
<path d="M66.7229 32.3379C66.7229 31.7129 66.5015 31.2311 66.0588 30.8926C65.6226 30.554 64.8316 30.2122 63.6858 29.8672C62.54 29.5221 61.6285 29.138 60.9514 28.7148C59.6558 27.901 59.0081 26.8398 59.0081 25.5312C59.0081 24.3854 59.4736 23.4414 60.4045 22.6992C61.342 21.957 62.5562 21.5859 64.0471 21.5859C65.0367 21.5859 65.9189 21.7682 66.6936 22.1328C67.4683 22.4974 68.0771 23.0182 68.5198 23.6953C68.9625 24.3659 69.1838 25.1113 69.1838 25.9316H66.7229C66.7229 25.1895 66.4885 24.61 66.0198 24.1934C65.5575 23.7702 64.8935 23.5586 64.0276 23.5586C63.2203 23.5586 62.592 23.7311 62.1428 24.0762C61.7001 24.4212 61.4788 24.903 61.4788 25.5215C61.4788 26.0423 61.7196 26.4785 62.2014 26.8301C62.6832 27.1751 63.4775 27.5137 64.5842 27.8457C65.691 28.1712 66.5797 28.5456 67.2502 28.9688C67.9208 29.3854 68.4124 29.8672 68.7249 30.4141C69.0374 30.9544 69.1936 31.5892 69.1936 32.3184C69.1936 33.5033 68.7379 34.4473 67.8264 35.1504C66.9215 35.847 65.691 36.1953 64.135 36.1953C63.1064 36.1953 62.1591 36.0065 61.2932 35.6289C60.4338 35.2448 59.7633 34.7174 59.2815 34.0469C58.8062 33.3763 58.5686 32.5951 58.5686 31.7031H61.0393C61.0393 32.5104 61.3062 33.1354 61.8401 33.5781C62.3739 34.0208 63.1389 34.2422 64.135 34.2422C64.9944 34.2422 65.6389 34.0697 66.0686 33.7246C66.5048 33.373 66.7229 32.9108 66.7229 32.3379ZM73.6565 36H71.2834V25.4336H73.6565V36ZM71.137 22.6895C71.137 22.3249 71.2509 22.0221 71.4788 21.7812C71.7131 21.5404 72.0452 21.4199 72.4749 21.4199C72.9045 21.4199 73.2366 21.5404 73.4709 21.7812C73.7053 22.0221 73.8225 22.3249 73.8225 22.6895C73.8225 23.0475 73.7053 23.347 73.4709 23.5879C73.2366 23.8223 72.9045 23.9395 72.4749 23.9395C72.0452 23.9395 71.7131 23.8223 71.4788 23.5879C71.2509 23.347 71.137 23.0475 71.137 22.6895ZM75.8342 30.6387C75.8342 28.998 76.2183 27.6895 76.9866 26.7129C77.7613 25.7298 78.7867 25.2383 80.0627 25.2383C81.2672 25.2383 82.2144 25.6582 82.9045 26.498L83.012 25.4336H85.1506V35.6777C85.1506 37.0645 84.7177 38.1582 83.8518 38.959C82.9924 39.7598 81.8303 40.1602 80.3655 40.1602C79.5907 40.1602 78.8323 39.9974 78.0901 39.6719C77.3544 39.3529 76.7945 38.9329 76.4104 38.4121L77.5334 36.9863C78.2626 37.8522 79.1611 38.2852 80.2288 38.2852C81.0165 38.2852 81.6383 38.0703 82.094 37.6406C82.5497 37.2174 82.7776 36.5924 82.7776 35.7656V35.0527C82.094 35.8145 81.1825 36.1953 80.0432 36.1953C78.8062 36.1953 77.7939 35.7038 77.0061 34.7207C76.2249 33.7376 75.8342 32.377 75.8342 30.6387ZM78.1975 30.8438C78.1975 31.9049 78.4124 32.7415 78.842 33.3535C79.2782 33.959 79.8805 34.2617 80.6487 34.2617C81.6057 34.2617 82.3153 33.8516 82.7776 33.0312V28.3828C82.3284 27.582 81.6252 27.1816 80.6682 27.1816C79.887 27.1816 79.2782 27.4909 78.842 28.1094C78.4124 28.7279 78.1975 29.6393 78.1975 30.8438ZM89.7991 25.4336L89.8674 26.6543C90.6487 25.7103 91.6741 25.2383 92.9436 25.2383C95.1441 25.2383 96.2639 26.498 96.303 29.0176V36H93.9299V29.1543C93.9299 28.4837 93.7834 27.9889 93.4905 27.6699C93.204 27.3444 92.732 27.1816 92.0745 27.1816C91.1174 27.1816 90.4045 27.6146 89.9358 28.4805V36H87.5627V25.4336H89.7991ZM106.547 36H104.086V21.7812H106.547V36ZM111.557 25.4336L111.625 26.6543C112.406 25.7103 113.432 25.2383 114.701 25.2383C116.902 25.2383 118.022 26.498 118.061 29.0176V36H115.688V29.1543C115.688 28.4837 115.541 27.9889 115.248 27.6699C114.962 27.3444 114.49 27.1816 113.832 27.1816C112.875 27.1816 112.162 27.6146 111.694 28.4805V36H109.321V25.4336H111.557ZM134.75 32.7285L136.43 25.4336H138.744L135.864 36H133.91L131.645 28.7441L129.418 36H127.465L124.574 25.4336H126.889L128.598 32.6504L130.766 25.4336H132.553L134.75 32.7285ZM142.856 36H140.483V25.4336H142.856V36ZM140.336 22.6895C140.336 22.3249 140.45 22.0221 140.678 21.7812C140.912 21.5404 141.244 21.4199 141.674 21.4199C142.104 21.4199 142.436 21.5404 142.67 21.7812C142.905 22.0221 143.022 22.3249 143.022 22.6895C143.022 23.0475 142.905 23.347 142.67 23.5879C142.436 23.8223 142.104 23.9395 141.674 23.9395C141.244 23.9395 140.912 23.8223 140.678 23.5879C140.45 23.347 140.336 23.0475 140.336 22.6895ZM148.422 22.8652V25.4336H150.287V27.1914H148.422V33.0898C148.422 33.4935 148.5 33.7865 148.656 33.9688C148.819 34.1445 149.106 34.2324 149.516 34.2324C149.789 34.2324 150.066 34.1999 150.346 34.1348V35.9707C149.806 36.1204 149.285 36.1953 148.783 36.1953C146.961 36.1953 146.049 35.1895 146.049 33.1777V27.1914H144.311V25.4336H146.049V22.8652H148.422ZM154.448 26.5859C155.222 25.6875 156.202 25.2383 157.387 25.2383C159.64 25.2383 160.782 26.5241 160.815 29.0957V36H158.442V29.1836C158.442 28.4544 158.282 27.9401 157.963 27.6406C157.651 27.3346 157.188 27.1816 156.576 27.1816C155.626 27.1816 154.916 27.6048 154.448 28.4512V36H152.074V21H154.448V26.5859ZM179.33 34.1543C178.816 34.8249 178.103 35.3327 177.192 35.6777C176.28 36.0228 175.245 36.1953 174.086 36.1953C172.895 36.1953 171.84 35.9251 170.922 35.3848C170.004 34.8444 169.295 34.0729 168.793 33.0703C168.298 32.0612 168.041 30.8861 168.022 29.5449V28.4316C168.022 26.2832 168.536 24.6068 169.565 23.4023C170.593 22.1914 172.029 21.5859 173.871 21.5859C175.453 21.5859 176.71 21.9766 177.641 22.7578C178.572 23.5391 179.132 24.6654 179.321 26.1367H176.899C176.625 24.4245 175.632 23.5684 173.92 23.5684C172.813 23.5684 171.97 23.9688 171.391 24.7695C170.818 25.5638 170.522 26.7324 170.502 28.2754V29.3691C170.502 30.9056 170.824 32.1003 171.469 32.9531C172.12 33.7995 173.022 34.2227 174.174 34.2227C175.437 34.2227 176.336 33.9362 176.869 33.3633V30.5801H173.94V28.7051H179.33V34.1543ZM181.371 30.6191C181.371 29.584 181.576 28.653 181.987 27.8262C182.397 26.9928 182.973 26.3548 183.715 25.9121C184.457 25.4629 185.31 25.2383 186.274 25.2383C187.699 25.2383 188.855 25.6973 189.74 26.6152C190.632 27.5332 191.114 28.7507 191.186 30.2676L191.196 30.8242C191.196 31.8659 190.994 32.7969 190.59 33.6172C190.193 34.4375 189.62 35.0723 188.871 35.5215C188.129 35.9707 187.27 36.1953 186.293 36.1953C184.802 36.1953 183.608 35.7005 182.709 34.7109C181.817 33.7148 181.371 32.39 181.371 30.7363V30.6191ZM183.744 30.8242C183.744 31.9115 183.969 32.7643 184.418 33.3828C184.867 33.9948 185.492 34.3008 186.293 34.3008C187.094 34.3008 187.716 33.9883 188.158 33.3633C188.608 32.7383 188.832 31.8236 188.832 30.6191C188.832 29.5514 188.601 28.7051 188.139 28.0801C187.683 27.4551 187.061 27.1426 186.274 27.1426C185.499 27.1426 184.884 27.4518 184.428 28.0703C183.972 28.6823 183.744 29.6003 183.744 30.8242ZM192.758 30.6191C192.758 29.584 192.963 28.653 193.373 27.8262C193.783 26.9928 194.36 26.3548 195.102 25.9121C195.844 25.4629 196.697 25.2383 197.66 25.2383C199.086 25.2383 200.242 25.6973 201.127 26.6152C202.019 27.5332 202.501 28.7507 202.573 30.2676L202.582 30.8242C202.582 31.8659 202.38 32.7969 201.977 33.6172C201.58 34.4375 201.007 35.0723 200.258 35.5215C199.516 35.9707 198.656 36.1953 197.68 36.1953C196.189 36.1953 194.994 35.7005 194.096 34.7109C193.204 33.7148 192.758 32.39 192.758 30.7363V30.6191ZM195.131 30.8242C195.131 31.9115 195.356 32.7643 195.805 33.3828C196.254 33.9948 196.879 34.3008 197.68 34.3008C198.481 34.3008 199.102 33.9883 199.545 33.3633C199.994 32.7383 200.219 31.8236 200.219 30.6191C200.219 29.5514 199.988 28.7051 199.526 28.0801C199.07 27.4551 198.448 27.1426 197.66 27.1426C196.886 27.1426 196.27 27.4518 195.815 28.0703C195.359 28.6823 195.131 29.6003 195.131 30.8242ZM204.174 30.6387C204.174 28.998 204.558 27.6895 205.326 26.7129C206.101 25.7298 207.127 25.2383 208.403 25.2383C209.607 25.2383 210.554 25.6582 211.244 26.498L211.352 25.4336H213.49V35.6777C213.49 37.0645 213.058 38.1582 212.192 38.959C211.332 39.7598 210.17 40.1602 208.705 40.1602C207.931 40.1602 207.172 39.9974 206.43 39.6719C205.694 39.3529 205.134 38.9329 204.75 38.4121L205.873 36.9863C206.602 37.8522 207.501 38.2852 208.569 38.2852C209.356 38.2852 209.978 38.0703 210.434 37.6406C210.89 37.2174 211.117 36.5924 211.117 35.7656V35.0527C210.434 35.8145 209.522 36.1953 208.383 36.1953C207.146 36.1953 206.134 35.7038 205.346 34.7207C204.565 33.7376 204.174 32.377 204.174 30.6387ZM206.537 30.8438C206.537 31.9049 206.752 32.7415 207.182 33.3535C207.618 33.959 208.22 34.2617 208.989 34.2617C209.946 34.2617 210.655 33.8516 211.117 33.0312V28.3828C210.668 27.582 209.965 27.1816 209.008 27.1816C208.227 27.1816 207.618 27.4909 207.182 28.1094C206.752 28.7279 206.537 29.6393 206.537 30.8438ZM218.461 36H216.088V21H218.461V36ZM225.707 36.1953C224.203 36.1953 222.983 35.7233 222.045 34.7793C221.114 33.8288 220.649 32.5658 220.649 30.9902V30.6973C220.649 29.6426 220.851 28.7018 221.254 27.875C221.664 27.0417 222.237 26.3939 222.973 25.9316C223.709 25.4694 224.529 25.2383 225.434 25.2383C226.873 25.2383 227.983 25.6973 228.764 26.6152C229.552 27.5332 229.946 28.832 229.946 30.5117V31.4688H223.041C223.113 32.3411 223.403 33.0312 223.91 33.5391C224.425 34.0469 225.069 34.3008 225.844 34.3008C226.931 34.3008 227.817 33.8613 228.5 32.9824L229.78 34.2031C229.356 34.8346 228.79 35.3262 228.08 35.6777C227.377 36.0228 226.586 36.1953 225.707 36.1953ZM225.424 27.1426C224.773 27.1426 224.246 27.3704 223.842 27.8262C223.445 28.2819 223.191 28.9167 223.08 29.7305H227.602V29.5547C227.55 28.7604 227.338 28.1615 226.967 27.7578C226.596 27.3477 226.082 27.1426 225.424 27.1426Z" fill="black" fill-opacity="0.54"/>
</g>
<defs>
<filter id="filter0_dd_1_720" x="0.845947" y="0" width="351" height="62" filterUnits="userSpaceOnUse" color-interpolation-filters="sRGB">
<feFlood flood-opacity="0" result="BackgroundImageFix"/>
<feColorMatrix in="SourceAlpha" type="matrix" values="0 0 0 0 0 0 0 0 0 0 0 0 0 0 0 0 0 0 127 0" result="hardAlpha"/>
<feOffset dy="2"/>
<feGaussianBlur stdDeviation="1.5"/>
<feColorMatrix type="matrix" values="0 0 0 0 0 0 0 0 0 0 0 0 0 0 0 0 0 0 0.168 0"/>
<feBlend mode="normal" in2="BackgroundImageFix" result="effect1_dropShadow_1_720"/>
<feColorMatrix in="SourceAlpha" type="matrix" values="0 0 0 0 0 0 0 0 0 0 0 0 0 0 0 0 0 0 127 0" result="hardAlpha"/>
<feOffset/>
<feGaussianBlur stdDeviation="1.5"/>
<feColorMatrix type="matrix" values="0 0 0 0 0 0 0 0 0 0 0 0 0 0 0 0 0 0 0.084 0"/>
<feBlend mode="normal" in2="effect1_dropShadow_1_720" result="effect2_dropShadow_1_720"/>
<feBlend mode="normal" in="SourceGraphic" in2="effect2_dropShadow_1_720" result="shape"/>
</filter>
</defs>
</svg>
