<svg width="346" height="54" viewBox="0 0 346 54" fill="none" xmlns="http://www.w3.org/2000/svg">
<rect x="0.845947" width="345" height="54" rx="10" fill="#1877F2"/>
<g clip-path="url(#clip0_1_717)">
<rect width="24" height="24" transform="translate(15.8459 15)" fill="#1877F2"/>
<path d="M39.3459 27.0699C39.3459 20.7186 34.1972 15.5699 27.8459 15.5699C21.4947 15.5699 16.3459 20.7186 16.3459 27.0699C16.3459 32.8099 20.5513 37.5674 26.0491 38.4302V30.3941H23.1292V27.0699H26.0491V24.5363C26.0491 21.6541 27.7659 20.0621 30.3928 20.0621C31.651 20.0621 32.967 20.2867 32.967 20.2867V23.1168H31.5169C30.0883 23.1168 29.6428 24.0032 29.6428 24.9127V27.0699H32.8323L32.3224 30.3941H29.6428V38.4302C35.1406 37.5674 39.3459 32.8099 39.3459 27.0699Z" fill="white"/>
</g>
<path d="M58.5471 28.5566C58.6383 29.2142 58.8173 29.7057 59.0842 30.0312C59.5725 30.6237 60.4091 30.9199 61.594 30.9199C62.3036 30.9199 62.8798 30.8418 63.3225 30.6855C64.1624 30.3861 64.5823 29.8294 64.5823 29.0156C64.5823 28.5404 64.3739 28.1725 63.9573 27.9121C63.5406 27.6582 62.8863 27.4336 61.9944 27.2383L60.4709 26.8965C58.9736 26.5579 57.9384 26.1901 57.3655 25.793C56.3954 25.1289 55.9104 24.0905 55.9104 22.6777C55.9104 21.3887 56.3792 20.3177 57.3167 19.4648C58.2542 18.612 59.6311 18.1855 61.4475 18.1855C62.9644 18.1855 64.2568 18.5892 65.3245 19.3965C66.3987 20.1973 66.9618 21.3626 67.0139 22.8926H64.1233C64.0712 22.0267 63.6936 21.4115 62.9905 21.0469C62.5217 20.806 61.939 20.6855 61.2424 20.6855C60.4677 20.6855 59.8492 20.8418 59.387 21.1543C58.9247 21.4668 58.6936 21.903 58.6936 22.4629C58.6936 22.9772 58.9215 23.3613 59.3772 23.6152C59.6702 23.7845 60.2952 23.9831 61.2522 24.2109L63.7327 24.8066C64.8199 25.0671 65.6402 25.4154 66.1936 25.8516C67.053 26.5286 67.4827 27.5085 67.4827 28.791C67.4827 30.1061 66.9781 31.1999 65.969 32.0723C64.9664 32.9382 63.5471 33.3711 61.7112 33.3711C59.8362 33.3711 58.3616 32.9447 57.2874 32.0918C56.2131 31.2324 55.676 30.054 55.676 28.5566H58.5471ZM72.3459 21.0859H69.5237V18.5176H72.3459V21.0859ZM69.5237 22.3555H72.3459V33H69.5237V22.3555ZM79.6213 30.7148C80.2724 30.7148 80.8225 30.4707 81.2717 29.9824C81.7209 29.4876 81.9456 28.7031 81.9456 27.6289C81.9456 26.6198 81.7307 25.8516 81.301 25.3242C80.8778 24.7969 80.3082 24.5332 79.592 24.5332C78.6155 24.5332 77.9417 24.9922 77.5706 25.9102C77.3752 26.3984 77.2776 27.0007 77.2776 27.7168C77.2776 28.3353 77.3818 28.8854 77.5901 29.3672C77.9677 30.2656 78.6448 30.7148 79.6213 30.7148ZM78.928 22.1016C79.4618 22.1016 79.9273 22.1829 80.3245 22.3457C81.0015 22.6257 81.5484 23.14 81.9651 23.8887V22.3555H84.6702V32.4531C84.6702 33.8268 84.439 34.862 83.9768 35.5586C83.1825 36.7565 81.6591 37.3555 79.4065 37.3555C78.0458 37.3555 76.9358 37.0885 76.0764 36.5547C75.217 36.0208 74.7418 35.2233 74.6506 34.1621H77.678C77.7561 34.4876 77.8831 34.722 78.0588 34.8652C78.3583 35.1191 78.8629 35.2461 79.5725 35.2461C80.5751 35.2461 81.2457 34.9108 81.5842 34.2402C81.8056 33.8105 81.9163 33.0879 81.9163 32.0723V31.3887C81.6493 31.8444 81.3629 32.1862 81.0569 32.4141C80.5035 32.8372 79.7841 33.0488 78.8987 33.0488C77.5315 33.0488 76.4377 32.5703 75.6174 31.6133C74.8036 30.6497 74.3967 29.3477 74.3967 27.707C74.3967 26.125 74.7906 24.7969 75.5784 23.7227C76.3661 22.6419 77.4827 22.1016 78.928 22.1016ZM93.176 22.1016C94.2763 22.1016 95.1747 22.3913 95.8713 22.9707C96.5745 23.5436 96.926 24.4974 96.926 25.832V33H94.0745V26.5254C94.0745 25.9655 93.9996 25.5358 93.8499 25.2363C93.5764 24.6895 93.0556 24.416 92.2874 24.416C91.3433 24.416 90.6956 24.8164 90.344 25.6172C90.1617 26.0404 90.0706 26.5807 90.0706 27.2383V33H87.2971V22.375H89.9827V23.9277C90.3407 23.3809 90.6793 22.987 90.9983 22.7461C91.5712 22.3164 92.2971 22.1016 93.176 22.1016ZM108.049 33H105.061V18.6055H108.049V33ZM116.535 22.1016C117.636 22.1016 118.534 22.3913 119.231 22.9707C119.934 23.5436 120.285 24.4974 120.285 25.832V33H117.434V26.5254C117.434 25.9655 117.359 25.5358 117.209 25.2363C116.936 24.6895 116.415 24.416 115.647 24.416C114.703 24.416 114.055 24.8164 113.703 25.6172C113.521 26.0404 113.43 26.5807 113.43 27.2383V33H110.656V22.375H113.342V23.9277C113.7 23.3809 114.039 22.987 114.358 22.7461C114.931 22.3164 115.656 22.1016 116.535 22.1016ZM133.449 22.3555H136.272L137.893 30.0215L139.553 22.3555H142.453L139.367 33H136.506L134.836 25.2461L133.147 33H130.256L127.268 22.3555H130.256L131.916 29.9922L133.449 22.3555ZM146.858 21.0859H144.035V18.5176H146.858V21.0859ZM144.035 22.3555H146.858V33H144.035V22.3555ZM148.469 24.4355V22.4531H149.953V19.4844H152.707V22.4531H154.436V24.4355H152.707V30.0605C152.707 30.4967 152.763 30.7702 152.873 30.8809C152.984 30.985 153.323 31.0371 153.889 31.0371C153.974 31.0371 154.061 31.0371 154.153 31.0371C154.25 31.0306 154.345 31.0241 154.436 31.0176V33.0977L153.117 33.1465C151.802 33.1921 150.904 32.9642 150.422 32.4629C150.11 32.1439 149.953 31.6523 149.953 30.9883V24.4355H148.469ZM162.092 22.082C162.75 22.082 163.345 22.196 163.879 22.4238C164.42 22.6517 164.862 23 165.207 23.4688C165.5 23.8659 165.679 24.276 165.744 24.6992C165.809 25.1159 165.842 25.7995 165.842 26.75V33H163V26.5254C163 25.9525 162.903 25.4902 162.707 25.1387C162.453 24.6439 161.972 24.3965 161.262 24.3965C160.526 24.3965 159.966 24.6439 159.582 25.1387C159.205 25.627 159.016 26.3268 159.016 27.2383V33H156.242V18.6543H159.016V23.7422C159.42 23.1237 159.885 22.694 160.412 22.4531C160.946 22.2057 161.506 22.082 162.092 22.082ZM174.24 18.625H184.446V21.1543H177.229V24.4648H183.547V26.9648H177.229V33H174.24V18.625ZM192.112 27.8242C191.936 27.9349 191.757 28.026 191.574 28.0977C191.399 28.1628 191.155 28.2246 190.842 28.2832L190.217 28.4004C189.631 28.5046 189.211 28.6315 188.957 28.7812C188.528 29.0352 188.313 29.429 188.313 29.9629C188.313 30.4382 188.443 30.7832 188.703 30.998C188.97 31.2064 189.293 31.3105 189.67 31.3105C190.269 31.3105 190.819 31.1348 191.321 30.7832C191.828 30.4316 192.092 29.7904 192.112 28.8594V27.8242ZM190.422 26.5254C190.936 26.4603 191.304 26.3789 191.526 26.2812C191.923 26.112 192.121 25.8483 192.121 25.4902C192.121 25.054 191.968 24.7546 191.662 24.5918C191.363 24.4225 190.92 24.3379 190.334 24.3379C189.677 24.3379 189.211 24.5007 188.938 24.8262C188.742 25.0671 188.612 25.3926 188.547 25.8027H185.862C185.92 24.8717 186.181 24.1068 186.643 23.5078C187.378 22.5703 188.642 22.1016 190.432 22.1016C191.597 22.1016 192.632 22.3327 193.537 22.7949C194.442 23.2572 194.895 24.1296 194.895 25.4121V30.2949C194.895 30.6335 194.901 31.0436 194.914 31.5254C194.934 31.89 194.989 32.1374 195.08 32.2676C195.171 32.3978 195.308 32.5052 195.49 32.5898V33H192.463C192.378 32.7852 192.32 32.5833 192.287 32.3945C192.255 32.2057 192.229 31.9909 192.209 31.75C191.825 32.1667 191.382 32.5215 190.881 32.8145C190.282 33.1595 189.605 33.332 188.85 33.332C187.886 33.332 187.089 33.0586 186.457 32.5117C185.832 31.9583 185.52 31.1771 185.52 30.168C185.52 28.8594 186.024 27.9121 187.033 27.3262C187.587 27.0072 188.401 26.7793 189.475 26.6426L190.422 26.5254ZM203.733 26.1738C203.681 25.7767 203.547 25.4186 203.332 25.0996C203.02 24.6699 202.535 24.4551 201.877 24.4551C200.94 24.4551 200.298 24.9206 199.953 25.8516C199.771 26.3464 199.68 27.0039 199.68 27.8242C199.68 28.6055 199.771 29.2337 199.953 29.709C200.285 30.5944 200.91 31.0371 201.828 31.0371C202.479 31.0371 202.942 30.8613 203.215 30.5098C203.489 30.1582 203.655 29.7025 203.713 29.1426H206.555C206.49 29.9889 206.184 30.7897 205.637 31.5449C204.765 32.7624 203.472 33.3711 201.76 33.3711C200.048 33.3711 198.788 32.8633 197.981 31.8477C197.173 30.832 196.77 29.5137 196.77 27.8926C196.77 26.0632 197.216 24.6406 198.108 23.625C199 22.6094 200.23 22.1016 201.799 22.1016C203.134 22.1016 204.224 22.401 205.071 23C205.923 23.599 206.428 24.6569 206.584 26.1738H203.733ZM212.707 24.3672C212.063 24.3672 211.561 24.569 211.203 24.9727C210.852 25.3763 210.63 25.9232 210.539 26.6133H214.865C214.82 25.8776 214.595 25.321 214.192 24.9434C213.795 24.5592 213.3 24.3672 212.707 24.3672ZM212.707 22.0723C213.593 22.0723 214.39 22.2383 215.1 22.5703C215.809 22.9023 216.395 23.4264 216.858 24.1426C217.274 24.7741 217.545 25.5065 217.668 26.3398C217.74 26.8281 217.769 27.5312 217.756 28.4492H210.471C210.51 29.5169 210.845 30.2656 211.477 30.6953C211.861 30.9622 212.323 31.0957 212.864 31.0957C213.436 31.0957 213.902 30.9329 214.26 30.6074C214.455 30.4316 214.628 30.1875 214.778 29.875H217.619C217.548 30.5065 217.219 31.1478 216.633 31.7988C215.722 32.834 214.446 33.3516 212.805 33.3516C211.451 33.3516 210.256 32.9154 209.221 32.043C208.186 31.1706 207.668 29.7513 207.668 27.7852C207.668 25.9427 208.134 24.5299 209.065 23.5469C210.002 22.5638 211.216 22.0723 212.707 22.0723ZM225.393 22.1211C226.793 22.1211 227.886 22.6257 228.674 23.6348C229.468 24.6439 229.865 25.946 229.865 27.541C229.865 29.1947 229.475 30.5651 228.694 31.6523C227.912 32.7396 226.822 33.2832 225.422 33.2832C224.543 33.2832 223.837 33.1074 223.303 32.7559C222.984 32.5475 222.639 32.1829 222.268 31.6621V33H219.543V18.625H222.317V23.7422C222.668 23.2474 223.056 22.8698 223.479 22.6094C223.98 22.2839 224.618 22.1211 225.393 22.1211ZM224.68 30.9883C225.396 30.9883 225.953 30.6986 226.35 30.1191C226.747 29.5397 226.946 28.778 226.946 27.834C226.946 27.0788 226.848 26.4538 226.653 25.959C226.281 25.0215 225.598 24.5527 224.602 24.5527C223.593 24.5527 222.899 25.0117 222.522 25.9297C222.326 26.418 222.229 27.0495 222.229 27.8242C222.229 28.7357 222.431 29.4909 222.834 30.0898C223.238 30.6888 223.853 30.9883 224.68 30.9883ZM236.643 31.0371C237.457 31.0371 238.082 30.7474 238.518 30.168C238.954 29.5885 239.172 28.765 239.172 27.6973C239.172 26.6296 238.954 25.8092 238.518 25.2363C238.082 24.6569 237.457 24.3672 236.643 24.3672C235.829 24.3672 235.201 24.6569 234.758 25.2363C234.322 25.8092 234.104 26.6296 234.104 27.6973C234.104 28.765 234.322 29.5885 234.758 30.168C235.201 30.7474 235.829 31.0371 236.643 31.0371ZM242.092 27.6973C242.092 29.2598 241.643 30.5977 240.744 31.7109C239.846 32.8177 238.482 33.3711 236.653 33.3711C234.823 33.3711 233.459 32.8177 232.561 31.7109C231.662 30.5977 231.213 29.2598 231.213 27.6973C231.213 26.1608 231.662 24.8294 232.561 23.7031C233.459 22.5768 234.823 22.0137 236.653 22.0137C238.482 22.0137 239.846 22.5768 240.744 23.7031C241.643 24.8294 242.092 26.1608 242.092 27.6973ZM248.869 31.0371C249.683 31.0371 250.308 30.7474 250.744 30.168C251.181 29.5885 251.399 28.765 251.399 27.6973C251.399 26.6296 251.181 25.8092 250.744 25.2363C250.308 24.6569 249.683 24.3672 248.869 24.3672C248.056 24.3672 247.427 24.6569 246.985 25.2363C246.548 25.8092 246.33 26.6296 246.33 27.6973C246.33 28.765 246.548 29.5885 246.985 30.168C247.427 30.7474 248.056 31.0371 248.869 31.0371ZM254.319 27.6973C254.319 29.2598 253.869 30.5977 252.971 31.7109C252.073 32.8177 250.709 33.3711 248.879 33.3711C247.05 33.3711 245.686 32.8177 244.787 31.7109C243.889 30.5977 243.44 29.2598 243.44 27.6973C243.44 26.1608 243.889 24.8294 244.787 23.7031C245.686 22.5768 247.05 22.0137 248.879 22.0137C250.709 22.0137 252.073 22.5768 252.971 23.7031C253.869 24.8294 254.319 26.1608 254.319 27.6973ZM256.291 18.6543H259.026V26.4082L262.492 22.4043H265.94L262.219 26.4766L266.086 33H262.727L260.178 28.4492L259.026 29.6504V33H256.291V18.6543Z" fill="white"/>
<defs>
<clipPath id="clip0_1_717">
<rect width="24" height="24" fill="white" transform="translate(15.8459 15)"/>
</clipPath>
</defs>
</svg>
